<svg width="76" height="78" viewBox="0 0 76 78" fill="none" xmlns="http://www.w3.org/2000/svg">
<path d="M46.0723 22.4599V19.8375" stroke="white" stroke-width="2"/>
<path d="M46.0723 41.5664V38.944" stroke="white" stroke-width="2"/>
<path d="M50.1935 13.4686L54.6891 2.9788H50.5681C48.3203 2.9788 47.1964 1.85489 43.8246 1.10562C41.1272 0.506197 38.9544 2.60416 38.2051 3.72807L42.7007 13.4686C42.9505 13.8433 44.0494 14.5925 46.4471 14.5925C48.8448 14.5925 49.9437 13.8433 50.1935 13.4686Z" stroke="white" stroke-width="2"/>
<path d="M50.9414 27.3302C50.9414 25.4571 50.7808 22.46 47.9443 22.46C44.6475 22.46 43.3237 22.46 43.074 22.46C42.3247 22.7097 40.8262 23.5089 40.8262 24.7078C40.8262 25.9066 40.8262 27.4551 40.8262 28.0795C41.0759 28.7039 41.9501 29.9527 43.4486 29.9527C45.3218 29.9527 50.9414 31.8259 50.9414 33.3244C50.9414 34.5233 50.9414 36.3215 50.9414 37.0708C50.5667 37.6952 49.4428 38.944 47.9443 38.944C46.4457 38.944 44.5725 38.944 43.8233 38.944C42.9491 38.8191 40.8262 37.895 40.8262 36.6962C40.8262 35.4973 40.8262 34.4483 40.8262 34.0737" stroke="white" stroke-width="2"/>
<path d="M65.9292 37.82C66.1789 32.9497 62.5 22 53 15.5" stroke="white" stroke-width="2"/>
<path d="M28.0895 41.941C26.9656 31.0766 30 21.5 40 15.5" stroke="white" stroke-width="2"/>
<path d="M37.0803 53.5548H50.9418C51.816 53.0553 53.5643 51.5317 53.5643 49.4338C53.5643 47.3358 51.816 45.8123 50.9418 45.3128H39.7027C38.7037 44.3137 36.4808 42.3157 35.5817 42.3157C34.6826 42.3157 27.9641 42.3157 24.7173 42.3157C22.3446 43.5645 16.7 47.2609 13.1035 52.0562" stroke="white" stroke-width="2"/>
<path d="M26.5898 65.1686C27.0894 64.669 28.3881 63.67 29.5869 63.67C30.7858 63.67 45.8212 63.67 53.1891 63.67C56.8105 60.9227 64.578 54.6038 66.676 51.307C68.7739 48.0102 72.2955 41.4416 73.7941 38.5693C70.9219 36.6962 64.2034 35.1227 60.3072 43.8143L56 46" stroke="white" stroke-width="2"/>
<path d="M10.1074 56.9265L13.1045 59.9236" stroke="white" stroke-width="2"/>
<path d="M3.5 54.5L1.5 56.5L21.5 76.5L30 68L10 48L9 49" stroke="white" stroke-width="2"/>
<path d="M5 53L8 50" stroke="white" stroke-width="2"/>
</svg>
