<svg width="17" height="19" viewBox="0 0 17 19" fill="none" xmlns="http://www.w3.org/2000/svg">
<path d="M1 4.77417H2.6H15.4" stroke="#699C3F" stroke-width="2" stroke-linecap="round" stroke-linejoin="round"/>
<path d="M4.99961 4.77416V3.19921C4.99961 2.78151 5.16818 2.38092 5.46824 2.08556C5.7683 1.7902 6.17526 1.62427 6.59961 1.62427H9.79961C10.224 1.62427 10.6309 1.7902 10.931 2.08556C11.231 2.38092 11.3996 2.78151 11.3996 3.19921V4.77416M13.7996 4.77416V15.7988C13.7996 16.2165 13.631 16.6171 13.331 16.9124C13.0309 17.2078 12.624 17.3737 12.1996 17.3737H4.19961C3.77526 17.3737 3.3683 17.2078 3.06824 16.9124C2.76818 16.6171 2.59961 16.2165 2.59961 15.7988V4.77416H13.7996Z" stroke="#699C3F" stroke-width="2" stroke-linecap="round" stroke-linejoin="round"/>
<path d="M6.59961 8.71143V13.4363" stroke="#699C3F" stroke-width="2" stroke-linecap="round" stroke-linejoin="round"/>
<path d="M9.7998 8.71143V13.4363" stroke="#699C3F" stroke-width="2" stroke-linecap="round" stroke-linejoin="round"/>
</svg>
