<svg width="22" height="27" viewBox="0 0 22 27" fill="none" xmlns="http://www.w3.org/2000/svg">
<path d="M13.3639 15.7999C13.3639 17.2593 13.1283 18.3433 12.6572 19.052C12.1899 19.7606 11.4736 20.1149 10.5083 20.1149C9.57364 20.1149 8.865 19.7491 8.38236 19.0175C7.89972 18.2859 7.6584 17.2133 7.6584 15.7999C7.6584 14.3175 7.89206 13.2258 8.35938 12.5248C8.83053 11.82 9.54683 11.4676 10.5083 11.4676C11.4467 11.4676 12.1573 11.8353 12.6399 12.5708C13.1226 13.3062 13.3639 14.3826 13.3639 15.7999ZM9.02588 15.7999C9.02588 16.9452 9.14271 17.763 9.37637 18.2533C9.61386 18.7436 9.99117 18.9888 10.5083 18.9888C11.0254 18.9888 11.4027 18.7398 11.6402 18.2418C11.8815 17.7438 12.0022 16.9299 12.0022 15.7999C12.0022 14.6737 11.8815 13.8597 11.6402 13.3579C11.4027 12.8523 11.0254 12.5995 10.5083 12.5995C9.99117 12.5995 9.61386 12.8466 9.37637 13.3407C9.14271 13.8348 9.02588 14.6546 9.02588 15.7999Z" fill="#2F3327"/>
<path d="M18.5477 6.98206H2.99405L1 26.125H20.1429L18.5477 6.98206Z" stroke="#2F3327" stroke-width="1.64741"/>
<path d="M7.38281 6.98216V3.79168C7.51575 2.86112 8.41972 1 10.9721 1C13.5245 1 14.1626 2.86112 14.1626 3.79168V6.98216" stroke="#2F3327" stroke-width="1.64741"/>
</svg>
