<svg width="132" height="32" viewBox="0 0 132 32" fill="none" xmlns="http://www.w3.org/2000/svg">
<path d="M0.585938 24.2896V6.90682H2.88829V9.61209L2.77318 10.9935H2.83073C3.2912 9.95744 4.09703 8.92138 5.30577 7.94288C6.5145 6.96438 8.01103 6.50391 9.85292 6.50391C11.925 6.50391 13.4216 7.07949 14.3425 8.17311C15.2635 9.32429 15.6664 10.9935 15.6664 13.2383V24.2896H13.3065V13.8714C13.3065 12.2598 13.0762 10.9935 12.5582 10.0726C12.0402 9.15161 11.0617 8.7487 9.50756 8.7487C7.66568 8.7487 6.05403 9.43941 4.78774 10.7633C3.52144 12.1447 2.88829 13.8139 2.88829 15.8284V24.3472H0.585938V24.2896Z" fill="#80827E"/>
<path d="M19.5781 19.6274C19.5781 15.5983 23.0892 13.5837 30.169 13.5837H31.205V13.1232C31.205 10.1302 29.766 8.63364 26.9457 8.63364C25.1613 8.63364 23.5497 9.20923 21.9956 10.3029L20.902 8.51853C21.5927 7.94294 22.5136 7.42491 23.6072 7.07955C24.7584 6.7342 25.852 6.56152 27.0032 6.56152C29.0753 6.56152 30.687 7.13711 31.8382 8.28829C32.9318 9.43947 33.5074 11.1087 33.5074 13.2384V24.3472H31.2626V22.3327L31.3777 20.8937H31.3201C30.8597 21.9873 30.0538 22.9082 29.0178 23.6565C27.9817 24.4048 26.773 24.8077 25.4491 24.8077C23.8375 24.8077 22.4561 24.3472 21.3049 23.4838C20.1537 22.4478 19.5781 21.1815 19.5781 19.6274ZM21.938 19.3972C21.938 20.2605 22.2834 21.0664 22.9741 21.6995C23.6648 22.3902 24.6433 22.678 25.852 22.678C27.4637 22.678 28.73 21.9873 29.7085 20.6635C30.687 19.3396 31.1475 17.8431 31.1475 16.1739V15.368H30.169C29.4207 15.368 28.7875 15.368 28.2695 15.4256C27.7515 15.4256 27.0032 15.5407 26.1398 15.7134C25.2765 15.8861 24.5857 16.0587 24.0102 16.289C23.4346 16.5192 22.9741 16.9221 22.5712 17.4402C22.1683 18.0157 21.938 18.6489 21.938 19.3972Z" fill="#80827E"/>
<path d="M39.5524 17.9586V9.03695H37.25V7.07995H39.5524V2.12988H41.8547V7.07995H46.2292V9.03695H41.8547V17.7283C41.8547 18.6493 41.9698 19.4551 42.2576 20.1458C42.5454 20.779 42.8908 21.297 43.3512 21.5848C43.8117 21.8726 44.2146 22.0453 44.6175 22.1604C45.0204 22.2755 45.4234 22.3331 45.8263 22.3331C46.1716 22.3331 46.4019 22.3331 46.6321 22.2755V24.4052C46.3443 24.4627 45.999 24.4627 45.6536 24.4627C45.1931 24.4627 44.6751 24.4052 44.2146 24.3476C43.7542 24.2901 43.2361 24.1174 42.6605 23.8296C42.0849 23.5418 41.5669 23.1964 41.1064 22.7935C40.646 22.3906 40.3006 21.6999 40.0128 20.8941C39.725 20.0307 39.5524 19.0522 39.5524 17.9586Z" fill="#80827E"/>
<path d="M49.9688 17.9585V6.90723H52.3287V17.3254C52.3287 18.937 52.5589 20.2033 53.0769 21.1243C53.595 22.0452 54.5735 22.4481 56.1275 22.4481C58.027 22.4481 59.5811 21.7574 60.7898 20.3184C61.9986 18.8795 62.5741 17.2103 62.5741 15.1957V6.90723H64.9341V24.29H62.6317V21.5847L62.7468 20.2033H62.6893C62.2864 21.2969 61.4805 22.333 60.2718 23.254C59.0631 24.2325 57.5665 24.6929 55.8398 24.6929C53.8252 24.6929 52.3287 24.1173 51.4077 23.0237C50.4868 21.9301 49.9688 20.2609 49.9688 17.9585Z" fill="#80827E"/>
<path d="M70.4609 24.2889V6.90613H72.7633V10.1294L72.6482 11.5108H72.7057C73.1662 10.1294 73.8569 8.97825 74.893 8.11487C75.8715 7.19393 77.0226 6.79102 78.2889 6.79102C78.6343 6.79102 78.9221 6.84857 79.2099 6.90613V9.20849C79.0948 9.15093 78.807 9.15093 78.3465 9.15093C77.1378 9.15093 76.1017 9.55384 75.1808 10.4172C74.3174 11.2806 73.6842 12.2591 73.3389 13.4103C72.9935 14.5615 72.8209 15.7702 72.8209 16.9789V24.3465H70.4609V24.2889Z" fill="#80827E"/>
<path d="M81.1094 19.6274C81.1094 15.5983 84.6205 13.5837 91.7002 13.5837H92.7363V13.1232C92.7363 10.1302 91.2973 8.63364 88.4769 8.63364C86.6926 8.63364 85.0809 9.20923 83.5269 10.3029L82.4332 8.51853C83.1239 7.94294 84.0449 7.42491 85.1385 7.07955C86.2897 6.7342 87.3833 6.56152 88.5345 6.56152C90.6066 6.56152 92.2182 7.13711 93.3694 8.28829C94.463 9.43947 95.0386 11.1087 95.0386 13.2384V24.3472H92.7938V22.3327L92.9089 20.8937H92.8514C92.3909 21.9873 91.5851 22.9082 90.549 23.6565C89.513 24.4048 88.3042 24.8077 86.9804 24.8077C85.3687 24.8077 83.9873 24.3472 82.8361 23.4838C81.685 22.4478 81.1094 21.1815 81.1094 19.6274ZM83.5269 19.3972C83.5269 20.2605 83.8722 21.0664 84.5629 21.6995C85.2536 22.3902 86.2321 22.678 87.4409 22.678C89.0525 22.678 90.3188 21.9873 91.2973 20.6635C92.2758 19.3396 92.7363 17.8431 92.7363 16.1739V15.368H91.7578C91.0095 15.368 90.3764 15.368 89.8583 15.4256C89.3403 15.4256 88.592 15.5407 87.7286 15.7134C86.8653 15.8861 86.1746 16.0587 85.599 16.289C85.0234 16.5192 84.5629 16.9221 84.16 17.4402C83.6995 18.0157 83.5269 18.6489 83.5269 19.3972Z" fill="#80827E"/>
<path d="M100.508 20.1456V0H102.868V19.6276C102.868 21.3543 103.501 22.2753 104.825 22.2753C105.055 22.2753 105.228 22.2753 105.4 22.2177V24.3474C105.113 24.405 104.825 24.405 104.537 24.405C104.192 24.405 103.846 24.405 103.558 24.3474C103.271 24.2899 102.925 24.1747 102.522 24.0021C102.119 23.8294 101.774 23.5991 101.544 23.3113C101.256 23.0236 101.026 22.5631 100.853 22.0451C100.565 21.527 100.508 20.8939 100.508 20.1456Z" fill="#80827E"/>
<path d="M108.969 20.1456V0H111.329V19.6276C111.329 21.3543 111.962 22.2753 113.286 22.2753C113.516 22.2753 113.689 22.2753 113.861 22.2177V24.3474C113.573 24.405 113.286 24.405 112.998 24.405C112.653 24.405 112.307 24.405 112.019 24.3474C111.732 24.2899 111.386 24.1747 110.983 24.0021C110.58 23.8294 110.235 23.5991 110.005 23.3113C109.717 23.0236 109.487 22.5631 109.314 22.0451C109.084 21.527 108.969 20.8939 108.969 20.1456Z" fill="#80827E"/>
<path d="M115.934 28.6069C116.568 29.125 117.258 29.4128 118.007 29.4128C119.388 29.4128 120.482 28.4918 121.345 26.5924L122.381 24.1173L115.129 6.90723H117.719L122.784 19.5702L123.417 21.4121H123.475C123.647 20.7789 123.82 20.1458 124.05 19.5702L129.058 6.90723H131.591L123.014 27.9162C122.554 29.0674 121.863 29.9308 121 30.5639C120.136 31.1971 119.158 31.5424 118.007 31.5424C117.489 31.5424 116.971 31.4849 116.453 31.3122C115.934 31.1395 115.532 30.9668 115.301 30.7942L114.898 30.5064L115.934 28.6069Z" fill="#80827E"/>
</svg>
