<svg width="123" height="41" viewBox="0 0 123 41" fill="none" xmlns="http://www.w3.org/2000/svg">
<path d="M0.429369 15.5C10.0151 17.3333 36.0437 21 55.4211 21C80.6467 21 94.2685 18.5 104.863 12" stroke="white"/>
<path d="M104.865 15.9993C98.8105 18.7993 92.9245 18.166 90.7383 17.4993C91.7473 14.4986 95.7834 11.9993 102.342 9.49931C107.589 7.49931 117.3 9.33339 121 10.5001C116.5 11.5001 112.432 12.4993 104.865 15.9993Z" stroke="white"/>
<path d="M94.2697 22.0009C89.4264 19.2009 80.8161 19.8342 77.1164 20.5009C79.1344 21.3339 83.9777 23.8 87.2066 27C90.4355 30.2 99.6512 30 103.855 29.5C102.678 28.167 99.1131 24.8009 94.2697 22.0009Z" stroke="white"/>
<path d="M78.125 20.5C81.6566 21 89.527 22.7 92.7559 25.5" stroke="white"/>
<path d="M83.6745 12.5C80.6474 18.5 75 20 70 20.5C73 18 75.0978 15 78.1249 9C80.5465 4.2 87.8788 1.66667 91.2422 1C89.7287 2.83333 86.0962 7.7 83.6745 12.5Z" stroke="white"/>
<path d="M70.5 20.5C75 18.5 82.0594 12 83.6738 8" stroke="white"/>
<path d="M62.4831 26.5C58.0434 22.9 52.561 21.6667 50.3748 21.5C51.552 22.8333 54.7136 26.5 57.9425 30.5C61.1714 34.5 67.3601 35.5 70.0508 35.5C69.3781 34 66.9228 30.1 62.4831 26.5Z" stroke="white"/>
<path d="M50.8814 21C53.404 23 58.9536 27.5 60.9717 29.5" stroke="white"/>
<path d="M65.5112 21C67.5292 22.6667 72.0698 26.2 74.0879 27" stroke="white"/>
<path d="M77.1134 28.5L78.627 30" stroke="white"/>
<path d="M69.501 9.5C64.2541 15.1 55.501 20.5 48.001 20.5C50.5235 13.5011 55.9248 10.9993 60.9699 5.9993C65.006 1.9993 73.4145 2.00049 77.1143 2.50109C75.001 4 74.7479 3.9 69.501 9.5Z" stroke="white"/>
<path d="M68.0352 6C62.4855 10 50.7809 18.6 48.3592 21" stroke="white"/>
<path d="M44.3214 30C38.7717 23.5 24.6454 19 22.6274 19C25.1499 20.8333 31.1032 26 34.7356 32C38.3681 38 48.0211 39.8333 52.3936 40C51.5527 38.8333 48.7611 35.2 44.3214 30Z" stroke="white"/>
<path d="M42.3037 33C37.4268 28.6667 26.7648 19.8 23.1323 19" stroke="white"/>
<path d="M43.8174 10C40.9585 13 35.501 17.5 30.001 19.5" stroke="white"/>
<path d="M46.3389 6L45.3298 8" stroke="white"/>
<path d="M33.5 6.5C31.3138 7.5 26.018 10.9 24 12.5C21 14.8785 16.5 15.5 14 17.5" stroke="white"/>
<path d="M32.2132 11.4997C28.9844 15.4997 22.4594 15.4997 19.6005 14.9997C19.6005 11.9995 23.132 9.49974 29.1862 4.99974C34.0295 1.39974 40.6218 1.49974 43.3125 1.99974C40.9581 3.49974 35.4421 7.49974 32.2132 11.4997Z" stroke="white"/>
</svg>
