<svg width="20" height="16" viewBox="0 0 20 16" fill="none" xmlns="http://www.w3.org/2000/svg">
<path d="M17.612 2.2377C17.1722 1.84531 16.65 1.53404 16.0752 1.32168C15.5005 1.10931 14.8844 1 14.2623 1C13.6401 1 13.0241 1.10931 12.4493 1.32168C11.8746 1.53404 11.3524 1.84531 10.9126 2.2377L9.99977 3.05166L9.08699 2.2377C8.19858 1.44548 6.99364 1.00041 5.73725 1.00041C4.48085 1.00041 3.27591 1.44548 2.38751 2.2377C1.4991 3.02993 1 4.10441 1 5.22479C1 6.34516 1.4991 7.41965 2.38751 8.21187L3.30029 9.02583L9.99977 15L16.6992 9.02583L17.612 8.21187C18.0521 7.81967 18.4011 7.354 18.6393 6.84146C18.8774 6.32893 19 5.77958 19 5.22479C19 4.67 18.8774 4.12064 18.6393 3.60811C18.4011 3.09558 18.0521 2.6299 17.612 2.2377Z" stroke="#68745C" stroke-linecap="round" stroke-linejoin="round"/>
</svg>
