<svg width="123" height="41" viewBox="0 0 123 41" fill="none" xmlns="http://www.w3.org/2000/svg">
<path d="M0.429369 15.5C10.0151 17.3333 36.0437 21 55.4211 21C80.6467 21 94.2685 18.5 104.863 12" stroke="#9CA896"/>
<path d="M104.865 15.9992C98.8105 18.7992 92.9245 18.1659 90.7383 17.4992C91.7473 14.4985 95.7834 11.9992 102.342 9.49925C107.589 7.49925 117.3 9.33333 121 10.5C116.5 11.5 112.432 12.4992 104.865 15.9992Z" stroke="#9CA896"/>
<path d="M94.2697 22.0009C89.4264 19.2009 80.8161 19.8342 77.1164 20.5009C79.1344 21.3339 83.9777 23.8 87.2066 27C90.4355 30.2 99.6512 30 103.855 29.5C102.678 28.167 99.1131 24.8009 94.2697 22.0009Z" stroke="#9CA896"/>
<path d="M78.125 20.5C81.6566 21 89.527 22.7 92.7559 25.5" stroke="#9CA896"/>
<path d="M83.6745 12.5C80.6474 18.5 75 20 70 20.5C73 18 75.0978 15 78.1249 9C80.5465 4.2 87.8788 1.66667 91.2422 1C89.7287 2.83333 86.0962 7.7 83.6745 12.5Z" stroke="#9CA896"/>
<path d="M70.5 20.5C75 18.5 82.0594 12 83.6738 8" stroke="#9CA896"/>
<path d="M62.4831 26.5C58.0434 22.9 52.561 21.6667 50.3748 21.5C51.552 22.8333 54.7136 26.5 57.9425 30.5C61.1714 34.5 67.3601 35.5 70.0508 35.5C69.3781 34 66.9228 30.1 62.4831 26.5Z" stroke="#9CA896"/>
<path d="M50.8824 21C53.405 23 58.9546 27.5 60.9727 29.5" stroke="#9CA896"/>
<path d="M65.5112 21C67.5292 22.6667 72.0698 26.2 74.0879 27" stroke="#9CA896"/>
<path d="M77.1134 28.5L78.627 30" stroke="#9CA896"/>
<path d="M69.5 9.5C64.2531 15.1 55.5 20.5 48 20.5C50.5226 13.5011 55.9238 10.9993 60.9689 5.9993C65.005 1.9993 73.4135 2.00049 77.1133 2.50109C75 4 74.7469 3.9 69.5 9.5Z" stroke="#9CA896"/>
<path d="M68.0352 6C62.4855 10 50.7809 18.6 48.3592 21" stroke="#9CA896"/>
<path d="M44.3204 30C38.7708 23.5 24.6444 19 22.6264 19C25.1489 20.8333 31.1022 26 34.7347 32C38.3672 38 48.0201 39.8333 52.3926 40C51.5517 38.8333 48.7601 35.2 44.3204 30Z" stroke="#9CA896"/>
<path d="M42.3047 33C37.4277 28.6667 26.7657 19.8 23.1332 19" stroke="#9CA896"/>
<path d="M43.8164 10C40.9575 13 35.5 17.5 30 19.5" stroke="#9CA896"/>
<path d="M46.3379 6L45.3289 8" stroke="#9CA896"/>
<path d="M33.5 6.5C31.3138 7.5 26.018 10.9 24 12.5C21 14.8785 16.5 15.5 14 17.5" stroke="#9CA896"/>
<path d="M32.2132 11.4997C28.9844 15.4997 22.4594 15.4997 19.6005 14.9997C19.6005 11.9995 23.132 9.49974 29.1862 4.99974C34.0295 1.39974 40.6218 1.49974 43.3125 1.99974C40.9581 3.49974 35.4421 7.49974 32.2132 11.4997Z" stroke="#9CA896"/>
</svg>
