<svg width="61" height="61" viewBox="0 0 61 61" fill="none" xmlns="http://www.w3.org/2000/svg">
<path d="M46.5008 32.5C42.9008 36.1 37.0008 35.6667 34.5008 35C33.6675 33.3333 32.5008 28.9 34.5008 24.5C36.5008 20.1 44.6675 18 48.5008 17.5C49.3341 21 50.1008 28.9 46.5008 32.5Z" stroke="#9CA896"/>
<path d="M11 6.5H32V1H1L5 51H27.5L28 47.5" stroke="#9CA896"/>
<path d="M24.5 51V60H9V55" stroke="#9CA896"/>
<path d="M14 51.5V56.5" stroke="#9CA896"/>
<path d="M19.5 51.5V56.5" stroke="#9CA896"/>
<circle cx="40.5" cy="27.5" r="19.5" stroke="#9CA896"/>
<path d="M7 6.5H1.5" stroke="#9CA896"/>
<path d="M31 40C31 39.5 40.5 26 43 24.5" stroke="#9CA896"/>
</svg>
