<svg width="148" height="62" viewBox="0 0 148 62" fill="none" xmlns="http://www.w3.org/2000/svg">
<path d="M55.4285 23.1423C55.4285 23.1423 54.3687 22.9591 54.3687 21.4413C54.3687 19.9234 55.507 19.0729 57.3781 18.6935C59.2361 18.3271 66.1972 16.757 66.2364 12.1512C66.2626 7.54536 59.5502 7.10049 57.7576 10.9343C56.3183 14.0092 56.1874 17.9869 57.5221 20.0281C58.8567 22.0693 60.9502 23.7049 65.3467 23.574C69.7431 23.4432 73.4984 19.0206 73.4984 19.0206V4.48356C73.4984 4.48356 71.3787 0.885283 67.2701 0.191797C61.84 -0.711043 59.0399 1.86663 59.0399 1.86663C59.0399 1.86663 64.47 1.02921 66.7206 2.7433C69.6777 4.98077 71.3656 7.41452 71.3656 12.6615C71.3656 17.9084 67.715 22.9067 62.9653 22.632C58.0585 22.3441 56.6454 17.1233 58.3595 13.4596C60.0736 9.79592 63.6457 9.07627 63.6588 12.2951C63.6718 15.0298 60.5839 16.6915 56.3183 18.0392C52.3798 19.2823 52.3013 21.6899 52.8247 22.4357C53.3481 23.1815 54.6303 23.1161 55.4285 23.1423Z" fill="#699C3F"/>
<path d="M91.5256 0.440354C91.5256 0.440354 92.5854 0.623539 92.5854 2.14136C92.5854 3.65918 91.447 4.50968 89.5759 4.88913C87.7048 5.26859 80.7569 6.82566 80.7176 11.4315C80.6915 16.0372 87.4039 16.4821 89.1965 12.6483C90.6358 9.57343 90.7666 5.5957 89.432 3.5545C88.0974 1.51329 86.0038 -0.122286 81.6205 0.00856061C77.224 0.139407 73.4688 4.56202 73.4688 4.56202V19.0991C73.4688 19.0991 75.5885 22.6973 79.697 23.3908C85.1272 24.2937 87.9273 21.716 87.9273 21.716C87.9273 21.716 82.4971 22.5534 80.2466 20.8393C77.2895 18.6018 75.6015 16.1681 75.6015 10.9212C75.6015 5.67421 79.2522 0.675877 84.0019 0.950655C88.9086 1.23852 90.3218 6.45929 88.6077 10.123C86.9067 13.7998 83.3215 14.5063 83.3084 11.2875C83.2953 8.55283 86.3833 6.89108 90.6489 5.54336C94.5874 4.30032 94.6659 1.89275 94.1425 1.14692C93.5929 0.414184 92.3237 0.466523 91.5256 0.440354Z" fill="#699C3F"/>
<path d="M2.51225 34.8922H0V48.3956H2.51225V34.8922Z" fill="#699C3F"/>
<path d="M10.6919 34.8922H8.17969V48.3956H10.6919V34.8922Z" fill="#699C3F"/>
<path d="M46.44 34.8922H43.9277V48.3956H46.44V34.8922Z" fill="#699C3F"/>
<path d="M82.9165 34.8922H80.4043V48.3956H82.9165V34.8922Z" fill="#699C3F"/>
<path d="M100.188 34.8922H97.6758V48.3956H100.188V34.8922Z" fill="#699C3F"/>
<path d="M114.747 34.8922H112.234V48.3956H114.747V34.8922Z" fill="#699C3F"/>
<path d="M123.495 34.8922H120.982V48.3956H123.495V34.8922Z" fill="#699C3F"/>
<path d="M139.334 35.9651L141.663 35.0361L147.002 48.3956H144.293L139.334 35.9651Z" fill="#699C3F"/>
<path d="M141.578 35.9651L139.249 35.0361L133.91 48.3956H136.619L141.578 35.9651Z" fill="#699C3F"/>
<path d="M25.1763 34.8922H22.6641V48.3956H25.1763V34.8922Z" fill="#699C3F"/>
<path d="M2.25781 40.3259V42.4849H8.52536V40.3259H2.25781Z" fill="#699C3F"/>
<path d="M76.3848 34.8838V37.0427H86.931V34.8838H76.3848Z" fill="#699C3F"/>
<path d="M136.965 43.1677V45.3267H143.952V43.1677H136.965Z" fill="#699C3F"/>
<path d="M114.66 34.7956L112.896 36.0406L121.174 47.7677L122.938 46.5227L114.66 34.7956Z" fill="#699C3F"/>
<path d="M32.3868 38.8962C32.3868 43.6591 26.9959 43.2403 25.1641 43.2403V41.3823H27.6763C28.2913 41.3823 28.8408 41.1337 29.2465 40.7281C29.6521 40.3225 29.9007 39.7729 29.9007 39.1579C29.9007 37.9411 28.9063 36.9466 27.6894 36.9466H25.1771V34.8923C25.1771 34.8923 32.3868 34.1334 32.3868 38.8962Z" fill="#699C3F"/>
<path d="M25.3691 43.2402C25.3691 43.2402 27.0571 48.0292 32.2386 48.3956L32.5788 46.302C32.5788 46.302 29.373 46.1188 27.8421 43.1748L25.3691 43.2402Z" fill="#699C3F"/>
<path d="M139.244 35.0361H141.665L140.448 35.5203L139.244 35.0361Z" fill="#699C3F"/>
<path d="M65.4365 37.5745C65.5019 37.6006 66.1693 35.6248 66.1693 35.6248C66.1693 35.6248 64.9655 34.7482 62.2308 34.7482C59.64 34.7482 57.7689 35.8734 57.7689 38.4642C57.7689 41.055 59.0905 41.4868 61.8644 42.612C63.9056 43.4364 64.2327 44.0775 64.1935 44.928C64.1673 45.5561 63.971 46.4589 61.5896 46.4589C59.2082 46.4589 58.2923 45.5168 58.2923 45.5168L57.4941 47.6365C57.4941 47.6365 58.4493 48.5656 61.8906 48.5656C65.5019 48.5656 66.745 46.9692 66.745 44.6925C66.745 42.4158 65.5412 41.6961 63.8402 40.898C62.414 40.2175 60.3728 40.0213 60.3728 38.1633C60.3728 36.5015 63.343 36.5408 65.4365 37.5745Z" fill="#699C3F"/>
<path d="M17.9027 55.553L18.099 54.9249C18.099 54.9249 17.5886 54.5847 16.3587 54.5847C15.1287 54.5847 13.4277 55.0819 13.4277 58.0914C13.4277 61.1009 15.5998 61.2971 16.6335 61.2971C17.6672 61.2971 18.099 60.9177 18.099 60.9177V60.1195C18.099 60.1195 17.8373 60.6298 16.6073 60.6298C15.3773 60.6298 14.2521 59.9756 14.2521 58.0521C14.2521 56.1287 15.2727 55.2651 16.3587 55.2651C17.4447 55.252 17.9027 55.553 17.9027 55.553Z" fill="#699C3F"/>
<path d="M30.4231 54.5715C28.8007 54.5715 27.4922 56.0763 27.4922 57.9343C27.4922 59.7923 28.8007 61.297 30.4231 61.297C32.0456 61.297 33.3541 59.7923 33.3541 57.9343C33.3541 56.0763 32.0456 54.5715 30.4231 54.5715ZM30.4231 60.7213C29.2194 60.7213 28.238 59.4783 28.238 57.9343C28.238 56.4034 29.2194 55.1473 30.4231 55.1473C31.6269 55.1473 32.6083 56.3903 32.6083 57.9343C32.6083 59.4652 31.6269 60.7213 30.4231 60.7213Z" fill="#699C3F"/>
<path d="M46.7268 55.5661L46.9492 54.9773C46.9492 54.9773 46.5567 54.5847 45.222 54.5847C43.8874 54.5847 42.9846 55.095 42.9846 56.3642C42.9846 57.6334 44.3192 57.8951 45.1697 58.3138C46.0595 58.7587 46.4389 58.9157 46.4389 59.6877C46.4389 60.4597 45.6669 60.656 44.751 60.656C43.8351 60.656 43.0631 60.2242 43.0631 60.2242L42.9453 60.9569C42.9453 60.9569 43.2463 61.3626 44.8164 61.3626C46.3735 61.3626 47.2632 60.6952 47.2632 59.5569C47.2632 58.4185 46.5305 58.183 45.4837 57.725C44.437 57.2671 43.7827 56.94 43.7827 56.2726C43.7827 55.6053 44.3977 55.252 45.2744 55.252C46.1511 55.252 46.7268 55.5661 46.7268 55.5661Z" fill="#699C3F"/>
<path d="M119.778 55.553L119.974 54.9249C119.974 54.9249 119.464 54.5847 118.234 54.5847C117.004 54.5847 115.303 55.0819 115.303 58.0914C115.303 61.1009 117.475 61.2971 118.508 61.2971C119.542 61.2971 119.974 60.9177 119.974 60.9177V60.1195C119.974 60.1195 119.712 60.6298 118.482 60.6298C117.252 60.6298 116.127 59.9756 116.127 58.0521C116.127 56.1287 117.148 55.2651 118.234 55.2651C119.32 55.2651 119.778 55.553 119.778 55.553Z" fill="#699C3F"/>
<path d="M133.084 55.5661L133.307 54.9773C133.307 54.9773 132.914 54.5847 131.579 54.5847C130.245 54.5847 129.342 55.095 129.342 56.3642C129.342 57.6334 130.677 57.8951 131.527 58.3138C132.417 58.7587 132.796 58.9157 132.796 59.6877C132.796 60.4597 132.024 60.656 131.108 60.656C130.192 60.656 129.42 60.2242 129.42 60.2242L129.303 60.9569C129.303 60.9569 129.604 61.3626 131.174 61.3626C132.731 61.3626 133.621 60.6952 133.621 59.5569C133.621 58.4185 132.888 58.183 131.841 57.725C130.794 57.2671 130.14 56.94 130.14 56.2726C130.14 55.6053 130.755 55.252 131.632 55.252C132.508 55.252 133.084 55.5661 133.084 55.5661Z" fill="#699C3F"/>
<path d="M57.9023 54.9773H57.1172V61.3364H57.9023V54.9773Z" fill="#699C3F"/>
<path d="M61.8632 55.5398H61.0781V61.3494H61.8632V55.5398Z" fill="#699C3F"/>
<path d="M65.8398 56.1287H65.0547V61.3364H65.8398V56.1287Z" fill="#699C3F"/>
<path d="M105.293 54.7809H104.508V61.3363H105.293V54.7809Z" fill="#699C3F"/>
<path d="M57.1172 54.9773C57.1172 54.9773 57.9415 54.5847 59.4463 54.5847C60.951 54.5847 61.4089 55.252 61.4089 55.252C61.4089 55.252 61.7622 54.5847 63.6464 54.5847C65.5306 54.5847 65.8577 56.1287 65.8577 56.1287H65.0726C65.0726 56.1287 64.5362 55.2913 63.6333 55.2913C62.7305 55.2913 61.8931 55.8932 61.8931 55.8932L61.108 56.2072C61.108 56.2072 60.637 55.2782 59.3154 55.2782C57.9939 55.2782 57.9284 55.553 57.9284 55.553L57.1172 54.9773Z" fill="#699C3F"/>
<path d="M80.4021 55.3567C79.931 54.8857 79.2637 54.5847 78.5441 54.5847C77.0917 54.5847 75.9141 55.7623 75.9141 57.2147V58.7587C75.9141 60.2111 77.0917 61.3887 78.5441 61.3887H79.2637C79.6432 61.3887 80.1666 61.271 80.6769 61.0747V60.4074C80.2843 60.6167 79.8133 60.7476 79.4992 60.7476H78.8581C77.8637 60.7476 76.7515 59.9363 76.7515 58.9419V58.183H81.1872V57.2147C81.1741 56.482 80.8731 55.8278 80.4021 55.3567ZM76.7384 57.3979V57.0839C76.7384 56.0895 77.5496 55.2782 78.5441 55.2782C79.0413 55.2782 79.4993 55.4745 79.8133 55.8016C80.1404 56.1287 80.3367 56.5736 80.3367 57.0708V57.3848H76.7384V57.3979Z" fill="#699C3F"/>
<path d="M92.0918 55.3829V55.082V54.7679H94.6826V55.3829H92.0918Z" fill="#699C3F"/>
<path d="M95.0084 60.9305C94.5505 61.2053 94.0271 61.3885 93.4775 61.3885C91.4625 61.3885 91.2793 59.5566 91.2793 59.5566V52.7395L92.0905 52.6479L92.1036 55.0686V55.3696L92.1167 59.5174C92.1167 59.5174 92.3653 60.6427 93.4775 60.6688C93.9355 60.6688 94.3804 60.4987 94.786 60.237L95.0084 60.9305Z" fill="#699C3F"/>
<path d="M104.916 53.3547C105.277 53.3547 105.57 53.0618 105.57 52.7005C105.57 52.3392 105.277 52.0463 104.916 52.0463C104.555 52.0463 104.262 52.3392 104.262 52.7005C104.262 53.0618 104.555 53.3547 104.916 53.3547Z" fill="#699C3F"/>
</svg>
