<svg width="19" height="15" viewBox="0 0 19 15" fill="none" xmlns="http://www.w3.org/2000/svg">
<path d="M16.9089 1.79996C16.4691 1.40757 15.9469 1.0963 15.3721 0.883931C14.7974 0.671563 14.1813 0.562256 13.5592 0.562256C12.937 0.562256 12.321 0.671563 11.7462 0.883931C11.1715 1.0963 10.6492 1.40757 10.2094 1.79996L9.29665 2.61392L8.38386 1.79996C7.49546 1.00773 6.29052 0.562666 5.03412 0.562667C3.77773 0.562667 2.57279 1.00773 1.68438 1.79996C0.795976 2.59218 0.296875 3.66667 0.296875 4.78704C0.296875 5.90742 0.795976 6.9819 1.68438 7.77413L2.59716 8.58809L9.29665 14.5623L15.9961 8.58809L16.9089 7.77413C17.3489 7.38192 17.698 6.91625 17.9361 6.40372C18.1743 5.89118 18.2969 5.34183 18.2969 4.78704C18.2969 4.23225 18.1743 3.6829 17.9361 3.17036C17.698 2.65783 17.3489 2.19216 16.9089 1.79996Z" fill="#F48484"/>
</svg>
