<svg width="140" height="59" viewBox="0 0 140 59" fill="none" xmlns="http://www.w3.org/2000/svg">
<path d="M52.7877 22.0394C52.7877 22.0394 51.7783 21.865 51.7783 20.4195C51.7783 18.974 52.8624 18.164 54.6444 17.8027C56.4138 17.4538 63.0432 15.9584 63.0805 11.5721C63.1055 7.1858 56.7129 6.76212 55.0057 10.4132C53.635 13.3416 53.5104 17.1298 54.7814 19.0737C56.0525 21.0176 58.0462 22.5753 62.2332 22.4507C66.4201 22.326 69.9965 18.1142 69.9965 18.1142V4.2699C69.9965 4.2699 67.9778 0.843096 64.065 0.182657C58.8936 -0.677159 56.2269 1.77768 56.2269 1.77768C56.2269 1.77768 61.3983 0.980168 63.5416 2.61257C66.3578 4.74342 67.9653 7.06119 67.9653 12.0581C67.9653 17.055 64.4886 21.8151 59.9653 21.5535C55.2923 21.2793 53.9465 16.3073 55.5789 12.8182C57.2114 9.32911 60.6132 8.64375 60.6257 11.7092C60.6382 14.3136 57.6973 15.8961 53.635 17.1796C49.8842 18.3634 49.8095 20.6563 50.3079 21.3665C50.8063 22.0768 52.0275 22.0145 52.7877 22.0394Z" fill="#80827E"/>
<path d="M87.169 0.419672C87.169 0.419672 88.1783 0.594127 88.1783 2.03962C88.1783 3.48511 87.0942 4.29508 85.3123 4.65645C83.5303 5.01782 76.9135 6.50069 76.8761 10.887C76.8512 15.2733 83.2437 15.697 84.9509 12.0459C86.3216 9.11753 86.4462 5.32935 85.1752 3.38542C83.9042 1.44148 81.9104 -0.116156 77.7359 0.00845498C73.549 0.133066 69.9727 4.34492 69.9727 4.34492V18.1892C69.9727 18.1892 71.9914 21.616 75.9041 22.2765C81.0755 23.1363 83.7422 20.6814 83.7422 20.6814C83.7422 20.6814 78.5708 21.479 76.4275 19.8465C73.6113 17.7157 72.0038 15.3979 72.0038 10.401C72.0038 5.40412 75.4805 0.643972 80.0039 0.905655C84.6768 1.1798 86.0226 6.15178 84.3902 9.64089C82.7702 13.1425 79.3559 13.8154 79.3434 10.7499C79.331 8.14556 82.2718 6.563 86.3341 5.27951C90.0849 4.0957 90.1597 1.80286 89.6612 1.09257C89.1378 0.394749 87.9291 0.444594 87.169 0.419672Z" fill="#80827E"/>
<path d="M2.39253 33.2295H0V46.0894H2.39253V33.2295Z" fill="#80827E"/>
<path d="M10.1816 33.2295H7.78906V46.0894H10.1816V33.2295Z" fill="#80827E"/>
<path d="M44.2285 33.2295H41.8359V46.0894H44.2285V33.2295Z" fill="#80827E"/>
<path d="M78.9668 33.2295H76.5742V46.0894H78.9668V33.2295Z" fill="#80827E"/>
<path d="M95.416 33.2295H93.0234V46.0894H95.416V33.2295Z" fill="#80827E"/>
<path d="M109.283 33.2295H106.891V46.0894H109.283V33.2295Z" fill="#80827E"/>
<path d="M117.607 33.2295H115.215V46.0894H117.607V33.2295Z" fill="#80827E"/>
<path d="M132.695 34.2514L134.913 33.3667L139.998 46.0895H137.418L132.695 34.2514Z" fill="#80827E"/>
<path d="M134.83 34.2514L132.611 33.3667L127.527 46.0895H130.107L134.83 34.2514Z" fill="#80827E"/>
<path d="M23.9785 33.2295H21.5859V46.0894H23.9785V33.2295Z" fill="#80827E"/>
<path d="M2.15234 38.4039V40.46H8.12122V38.4039H2.15234Z" fill="#80827E"/>
<path d="M72.7461 33.2213V35.2773H82.7898V33.2213H72.7461Z" fill="#80827E"/>
<path d="M130.438 41.1109V43.167H137.092V41.1109H130.438Z" fill="#80827E"/>
<path d="M109.195 33.1375L107.516 34.3232L115.399 45.4915L117.079 44.3058L109.195 33.1375Z" fill="#80827E"/>
<path d="M30.8395 37.0428C30.8395 41.5787 25.7055 41.1799 23.9609 41.1799V39.4104H26.3535C26.9391 39.4104 27.4625 39.1737 27.8488 38.7874C28.2351 38.4011 28.4719 37.8777 28.4719 37.292C28.4719 36.1331 27.5248 35.1861 26.3659 35.1861H23.9734V33.2297C23.9734 33.2297 30.8395 32.507 30.8395 37.0428Z" fill="#80827E"/>
<path d="M24.1602 41.18C24.1602 41.18 25.7676 45.7408 30.7022 46.0897L31.0262 44.0959C31.0262 44.0959 27.9733 43.9214 26.5153 41.1177L24.1602 41.18Z" fill="#80827E"/>
<path d="M132.613 33.3667H134.919L133.76 33.8278L132.613 33.3667Z" fill="#80827E"/>
<path d="M62.3178 35.7839C62.3801 35.8088 63.0156 33.9272 63.0156 33.9272C63.0156 33.9272 61.8692 33.0923 59.2648 33.0923C56.7975 33.0923 55.0156 34.1639 55.0156 36.6312C55.0156 39.0985 56.2742 39.5098 58.9159 40.5814C60.8599 41.3665 61.1714 41.9771 61.134 42.787C61.1091 43.3852 60.9222 44.245 58.6542 44.245C56.3863 44.245 55.514 43.3478 55.514 43.3478L54.7539 45.3665C54.7539 45.3665 55.6636 46.2512 58.9408 46.2512C62.3801 46.2512 63.5639 44.731 63.5639 42.5627C63.5639 40.3945 62.4175 39.7091 60.7975 38.949C59.4393 38.301 57.4954 38.1141 57.4954 36.3446C57.4954 34.7621 60.324 34.7995 62.3178 35.7839Z" fill="#80827E"/>
<path d="M17.0469 52.906L17.2338 52.3079C17.2338 52.3079 16.7478 51.9839 15.5764 51.9839C14.4051 51.9839 12.7852 52.4574 12.7852 55.3235C12.7852 58.1895 14.8537 58.3764 15.8381 58.3764C16.8226 58.3764 17.2338 58.0151 17.2338 58.0151V57.2549C17.2338 57.2549 16.9846 57.7409 15.8132 57.7409C14.6419 57.7409 13.5702 57.1179 13.5702 55.2861C13.5702 53.4543 14.5422 52.6319 15.5764 52.6319C16.6107 52.6194 17.0469 52.906 17.0469 52.906Z" fill="#80827E"/>
<path d="M28.971 51.9712C27.4258 51.9712 26.1797 53.4042 26.1797 55.1737C26.1797 56.9432 27.4258 58.3762 28.971 58.3762C30.5162 58.3762 31.7623 56.9432 31.7623 55.1737C31.7623 53.4042 30.5162 51.9712 28.971 51.9712ZM28.971 57.8279C27.8246 57.8279 26.89 56.6441 26.89 55.1737C26.89 53.7157 27.8246 52.5195 28.971 52.5195C30.1174 52.5195 31.052 53.7033 31.052 55.1737C31.052 56.6316 30.1174 57.8279 28.971 57.8279Z" fill="#80827E"/>
<path d="M44.4958 52.9185L44.7076 52.3577C44.7076 52.3577 44.3338 51.9839 43.0628 51.9839C41.7917 51.9839 40.9319 52.4699 40.9319 53.6786C40.9319 54.8873 42.2029 55.1365 43.0129 55.5353C43.8603 55.959 44.2216 56.1085 44.2216 56.8437C44.2216 57.5789 43.4864 57.7658 42.6142 57.7658C41.7419 57.7658 41.0067 57.3546 41.0067 57.3546L40.8945 58.0524C40.8945 58.0524 41.1811 58.4387 42.6765 58.4387C44.1593 58.4387 45.0067 57.8032 45.0067 56.7191C45.0067 55.635 44.3089 55.4107 43.312 54.9746C42.3151 54.5384 41.692 54.2269 41.692 53.5914C41.692 52.9559 42.2777 52.6194 43.1126 52.6194C43.9475 52.6194 44.4958 52.9185 44.4958 52.9185Z" fill="#80827E"/>
<path d="M114.066 52.906L114.253 52.3079C114.253 52.3079 113.767 51.9839 112.596 51.9839C111.425 51.9839 109.805 52.4574 109.805 55.3235C109.805 58.1895 111.873 58.3764 112.858 58.3764C113.842 58.3764 114.253 58.0151 114.253 58.0151V57.2549C114.253 57.2549 114.004 57.7409 112.833 57.7409C111.661 57.7409 110.59 57.1179 110.59 55.2861C110.59 53.4543 111.562 52.6319 112.596 52.6319C113.63 52.6319 114.066 52.906 114.066 52.906Z" fill="#80827E"/>
<path d="M126.742 52.9185L126.954 52.3577C126.954 52.3577 126.58 51.9839 125.309 51.9839C124.038 51.9839 123.178 52.4699 123.178 53.6786C123.178 54.8873 124.449 55.1365 125.259 55.5353C126.106 55.959 126.468 56.1085 126.468 56.8437C126.468 57.5789 125.733 57.7658 124.86 57.7658C123.988 57.7658 123.253 57.3546 123.253 57.3546L123.141 58.0524C123.141 58.0524 123.427 58.4387 124.923 58.4387C126.405 58.4387 127.253 57.8032 127.253 56.7191C127.253 55.635 126.555 55.4107 125.558 54.9746C124.561 54.5384 123.938 54.2269 123.938 53.5914C123.938 52.9559 124.524 52.6194 125.359 52.6194C126.194 52.6194 126.742 52.9185 126.742 52.9185Z" fill="#80827E"/>
<path d="M55.1422 52.3574H54.3945V58.4135H55.1422V52.3574Z" fill="#80827E"/>
<path d="M58.9195 52.8931H58.1719V58.4258H58.9195V52.8931Z" fill="#80827E"/>
<path d="M62.7047 53.4536H61.957V58.4131H62.7047V53.4536Z" fill="#80827E"/>
<path d="M100.275 52.1704H99.5273V58.4134H100.275V52.1704Z" fill="#80827E"/>
<path d="M54.3945 52.3577C54.3945 52.3577 55.1796 51.9839 56.6126 51.9839C58.0456 51.9839 58.4818 52.6194 58.4818 52.6194C58.4818 52.6194 58.8182 51.9839 60.6126 51.9839C62.407 51.9839 62.7186 53.4543 62.7186 53.4543H61.9709C61.9709 53.4543 61.46 52.6568 60.6002 52.6568C59.7403 52.6568 58.9428 53.23 58.9428 53.23L58.1952 53.5291C58.1952 53.5291 57.7466 52.6443 56.488 52.6443C55.2294 52.6443 55.1671 52.906 55.1671 52.906L54.3945 52.3577Z" fill="#80827E"/>
<path d="M76.5749 52.7191C76.1263 52.2705 75.4908 51.9839 74.8055 51.9839C73.4223 51.9839 72.3008 53.1054 72.3008 54.4886V55.959C72.3008 57.3422 73.4223 58.4637 74.8055 58.4637H75.4908C75.8522 58.4637 76.3506 58.3515 76.8366 58.1646V57.5291C76.4628 57.7285 76.0142 57.8531 75.7151 57.8531H75.1045C74.1575 57.8531 73.0983 57.0805 73.0983 56.1334V55.4107H77.3226V54.4886C77.3101 53.7907 77.0235 53.1677 76.5749 52.7191ZM73.0858 54.663V54.364C73.0858 53.4169 73.8584 52.6443 74.8055 52.6443C75.279 52.6443 75.7151 52.8312 76.0142 53.1428C76.3257 53.4543 76.5126 53.878 76.5126 54.3515V54.6506H73.0858V54.663Z" fill="#80827E"/>
<path d="M87.7031 52.7434V52.4568V52.1577H90.1704V52.7434H87.7031Z" fill="#80827E"/>
<path d="M90.4811 58.027C90.045 58.2887 89.5465 58.4632 89.0232 58.4632C87.1041 58.4632 86.9297 56.7186 86.9297 56.7186V50.2264L87.7023 50.1392L87.7147 52.4445V52.7311L87.7272 56.6812C87.7272 56.6812 87.964 57.7529 89.0232 57.7778C89.4593 57.7778 89.883 57.6158 90.2693 57.3666L90.4811 58.027Z" fill="#80827E"/>
<path d="M99.9121 50.812C100.256 50.812 100.535 50.5331 100.535 50.189C100.535 49.8449 100.256 49.5659 99.9121 49.5659C99.568 49.5659 99.2891 49.8449 99.2891 50.189C99.2891 50.5331 99.568 50.812 99.9121 50.812Z" fill="#80827E"/>
</svg>
