<svg width="141" height="46" viewBox="0 0 141 46" fill="none" xmlns="http://www.w3.org/2000/svg">
<path d="M15.1202 8.61544C15.1202 8.41236 15.1202 0.811702 15.1202 0.811702H14.1629V2.46528C14.1629 2.46528 10.2755 0.43457 7.89671 0.43457C5.51788 0.43457 1.39844 2.84241 1.39844 6.61373C1.39844 10.3851 7.02641 13.3151 10.3916 15.1137C13.7568 16.9123 13.8148 17.8407 13.8148 19.6973C13.8148 21.525 12.4803 23.5847 8.85405 23.5847C5.22778 23.5847 3.42915 21.728 2.58785 19.8424V17.3185H1.68854V24.8321H2.47181V23.4396C2.47181 23.4396 6.24314 24.8321 8.73801 24.8321C11.2329 24.8321 16.1936 24.2809 16.1936 18.711C16.1936 13.141 9.40524 10.9072 6.01105 9.05059C2.61686 7.19394 2.64587 2.75538 7.75166 2.55231C12.8865 2.34924 14.0759 5.13422 14.0759 8.55742L15.1202 8.61544Z" fill="black"/>
<path d="M36.3213 6.70087H37.4527V1.59508L36.0892 0.84082H19.0892V1.9142C19.0892 1.9142 22.4834 2.00123 22.4834 3.79986C22.4834 5.59849 22.4834 22.4824 22.4834 22.4824C22.4834 22.4824 19.9885 23.7879 18.8281 23.7879V24.6292H36.0892L38.8161 19.0012H37.3366C37.3366 19.0012 36.3213 22.7435 33.9134 22.7435C31.5056 22.7435 25.4715 22.7435 25.4715 22.7435V13.2572H32.666C32.666 13.2572 34.2035 14.7947 34.2035 16.1292H35.0158V8.41247H34.0875C34.0875 8.41247 33.9714 11.1394 32.5209 11.1394C31.0704 11.1394 25.3554 11.1394 25.3554 11.1394V2.72648H33.7974C33.7684 2.72648 36.3213 2.92955 36.3213 6.70087Z" fill="black"/>
<path d="M41.7829 6.87465V2.81322C41.7829 2.81322 42.2471 0.811523 43.6976 0.811523C45.1481 0.811523 59.2181 0.811523 59.2181 0.811523V2.34906L44.887 22.3371H55.5918C55.5918 22.3371 58.1737 21.3797 58.1737 19.349H59.2181V22.8012C59.2181 22.8012 58.4348 24.6289 57.3904 24.6289C56.3461 24.6289 39.7812 24.6289 39.7812 24.6289V22.4531L54.2863 2.98729H44.771C44.771 2.98729 43.1174 3.5965 43.1174 6.70059L41.7829 6.87465Z" fill="black"/>
<path d="M86.2155 4.20571C86.2155 4.20571 86.2155 20.6835 86.2155 21.9889C86.2155 23.2654 89.2906 23.5555 89.2906 23.5555V24.6289H81.3998V23.7876C84.5619 23.7876 84.5329 22.134 84.5329 22.134V5.39513L75.8009 24.5999H74.9016L66.1405 5.39513V22.105C66.1405 22.105 66.0825 23.7586 69.2736 23.7586V24.5999H61.3828V23.5265C61.3828 23.5265 64.4579 23.2654 64.4579 21.9599C64.4579 20.6835 64.4579 4.1767 64.4579 4.1767C64.4579 4.1767 64.1968 2.26203 61.3828 2.26203V0.811523H67.591L75.3367 19.291L83.1114 0.811523H89.3196V2.29104C86.4766 2.29104 86.2155 4.20571 86.2155 4.20571Z" fill="black"/>
<path d="M91.3906 24.6006V23.6143C91.3906 23.6143 92.9282 23.8464 94.0886 22.2218C95.278 20.5972 103.488 0 103.488 0V5.1348L96.5834 21.2354C96.5834 21.2354 96.5254 23.7593 98.7882 23.7593V24.6296H91.3906V24.6006Z" fill="black"/>
<path d="M107.314 24.6006H115.843V23.6143C115.843 23.6143 114.218 23.8464 112.71 21.9027C111.23 19.959 103.484 0 103.484 0V5.1348L109.664 21.2645C109.664 21.2645 109.693 23.7013 107.343 23.7013L107.314 24.6006Z" fill="black"/>
<path d="M108.271 15.375H98.3203V16.5934H108.271V15.375Z" fill="black"/>
<path d="M117.352 24.6008H126.026V23.6435C126.026 23.6435 123.125 23.7885 123.125 22.193C123.125 20.5974 123.125 0.8125 123.125 0.8125H117.555V1.9439C117.555 1.9439 120.688 2.26301 120.688 3.68451C120.688 5.106 120.688 21.5548 120.688 21.5548C120.688 21.5548 120.311 23.5275 117.381 23.5275V24.6008H117.352Z" fill="black"/>
<path d="M123.125 0.8125H129.652C129.652 0.8125 134.816 1.47973 134.816 7.13672C134.816 12.7937 127.157 14.0121 127.157 14.0121H123.125V12.0684H127.738C127.738 12.0684 131.48 10.2698 131.48 7.25276C131.48 4.2357 130.087 2.75618 128.956 2.75618C127.825 2.75618 123.125 2.75618 123.125 2.75618V0.8125Z" fill="black"/>
<path d="M140.585 24.6011H133.768L125.906 13.9834H129.445L136.118 22.7155C136.118 22.7155 137.771 23.4697 140.585 23.4697V24.6011Z" fill="black"/>
<path d="M87.3522 2.34961V23.6431H85.6406V2.9008L87.3522 2.34961Z" fill="black"/>
<path d="M11.6678 40.8751H12.103V44.9945H11.6098L10.8845 44.2983C10.4204 44.6754 9.86919 44.9365 9.25998 45.1105C8.62175 45.2846 7.92551 45.3716 7.17125 45.3716C5.25657 45.3716 3.66102 44.6464 2.44259 43.1669C1.19515 41.7454 0.585938 39.8597 0.585938 37.5389C0.585938 36.4365 0.730988 35.3921 1.0501 34.4058C1.36921 33.4485 1.83337 32.5491 2.44259 31.7949C3.0518 31.0116 3.80607 30.4024 4.70538 29.9382C5.6047 29.5031 6.50401 29.271 7.43234 29.271C8.07056 29.271 8.65076 29.358 9.20196 29.5611C9.75315 29.7642 10.3043 30.0833 10.8265 30.5184L11.6098 29.7352H11.9579V33.6515H11.4647C11.1456 32.4041 10.6235 31.4758 9.92721 30.8375C9.23097 30.1993 8.36066 29.8802 7.34531 29.8802C5.92381 29.8802 4.87944 30.5184 4.24122 31.7949C3.60299 33.0713 3.28388 35.1601 3.28388 38.0611C3.28388 39.4246 3.3419 40.4979 3.48695 41.2522C3.60299 42.0065 3.83508 42.6157 4.12518 43.1088C4.44429 43.631 4.87944 44.0662 5.40163 44.3563C5.95282 44.6754 6.53302 44.8204 7.17125 44.8204C8.30264 44.8204 9.23097 44.5013 10.0142 43.8341C10.7105 43.1379 11.2907 42.1805 11.6678 40.8751Z" fill="black"/>
<path d="M21.9614 45.4007C20.917 45.4007 20.0177 45.1977 19.2344 44.8205C18.4512 44.4434 17.7259 43.8052 17.0877 42.9929C16.5075 42.2386 16.0723 41.3683 15.7532 40.382C15.4341 39.3956 15.2891 38.3513 15.2891 37.2489C15.2891 36.2045 15.4341 35.2182 15.7532 34.2898C16.0723 33.3615 16.5075 32.5492 17.1167 31.824C17.8129 30.9827 18.5672 30.3445 19.3505 29.9383C20.1628 29.5322 21.0331 29.3291 21.9904 29.3291C22.9187 29.3291 23.76 29.5032 24.5143 29.8803C25.2686 30.2574 25.9648 30.8086 26.632 31.5629C27.2993 32.3462 27.7924 33.2165 28.1696 34.2318C28.5177 35.2182 28.6918 36.2915 28.6918 37.3939C28.6918 38.4963 28.5177 39.5407 28.1986 40.527C27.8795 41.5134 27.3863 42.4127 26.7771 43.167C26.1389 43.9502 25.4426 44.5304 24.6884 44.9076C23.8471 45.2267 22.9477 45.4007 21.9614 45.4007ZM21.9614 29.8803C20.4819 29.8803 19.4375 30.4895 18.8283 31.7079C18.2191 32.9264 17.929 35.1311 17.929 38.3223C17.929 40.498 18.2481 42.1226 18.9153 43.196C19.5826 44.2693 20.5979 44.8205 21.9614 44.8205C23.3249 44.8205 24.3112 44.2693 24.9785 43.196C25.6457 42.1226 25.9648 40.469 25.9648 38.2642C25.9648 35.0441 25.6747 32.8393 25.0655 31.6499C24.4563 30.4605 23.4409 29.8803 21.9614 29.8803Z" fill="black"/>
<path d="M30.9297 45.0242V44.444H32.8444V30.171H30.9877V29.5908H37.3119V30.171H35.1942V44.444H38.3853C39.5457 44.444 40.416 44.1829 40.9672 43.6317C41.5184 43.1096 41.9826 42.1232 42.3307 40.6727H42.7658L42.5047 45.0242H30.9297Z" fill="black"/>
<path d="M44.3594 45.0237V44.4435H46.274V30.1705H44.4174V29.5903H50.7706V30.1705H48.6529V44.4435H51.844C53.0044 44.4435 53.8747 44.1824 54.4259 43.6312C54.9771 43.1091 55.4413 42.1227 55.7894 40.6722H56.2245L55.9634 45.0237H44.3594Z" fill="black"/>
<path d="M58.0312 45.0242V44.444H59.7719V30.171H58.0312V29.5908H69.4903V33.3041H68.9971C68.823 32.1147 68.4459 31.3024 67.8947 30.8673C67.3435 30.4031 66.3862 30.2 64.9937 30.2H62.0927V36.7563H62.5568C63.5722 36.7563 64.2684 36.5823 64.7036 36.2051C65.1387 35.828 65.3708 35.2188 65.4579 34.3195H65.951V40.1215H65.4579C65.3998 39.0771 65.1387 38.3809 64.6746 37.9457C64.2104 37.5396 63.3981 37.3365 62.2667 37.3365H62.1507V44.502H65.4288C66.7053 44.502 67.6336 44.241 68.2428 43.6898C68.852 43.1386 69.2872 42.1522 69.5773 40.7017H70.0995L69.8674 45.1113H58.0312V45.0242Z" fill="black"/>
<path d="M83.9357 40.8753H84.3708V44.9947H83.8777L83.1524 44.2985C82.6883 44.6756 82.1371 44.9367 81.5278 45.1107C80.8896 45.2848 80.1934 45.3718 79.4391 45.3718C77.5244 45.3718 75.9289 44.6466 74.7105 43.1671C73.492 41.6875 72.8828 39.8309 72.8828 37.5101C72.8828 36.4077 73.0279 35.3633 73.347 34.377C73.6661 33.4197 74.1303 32.5203 74.7395 31.7661C75.3487 30.9828 76.1029 30.3736 77.0023 29.9094C77.9016 29.4743 78.8009 29.2422 79.7292 29.2422C80.3674 29.2422 80.9476 29.3292 81.4988 29.5323C82.05 29.7354 82.6012 30.0545 83.1234 30.4896L83.9067 29.7063H84.2548V33.6517H83.7616C83.4425 32.4043 82.9203 31.476 82.2241 30.8377C81.5278 30.1995 80.6575 29.8804 79.6422 29.8804C78.2207 29.8804 77.1763 30.5186 76.5381 31.7951C75.8999 33.0715 75.5808 35.1603 75.5808 38.0613C75.5808 39.4248 75.6388 40.4981 75.7838 41.2524C75.8999 42.0067 76.132 42.6159 76.4221 43.109C76.7412 43.6312 77.1763 44.0664 77.6985 44.3565C78.2497 44.6756 78.8299 44.8206 79.4681 44.8206C80.5995 44.8206 81.5278 44.5015 82.3111 43.8343C82.9784 43.1381 83.5586 42.1807 83.9357 40.8753Z" fill="black"/>
<path d="M89.7336 45.0237V44.4435H91.6773V30.1705C91.5902 30.1705 91.4742 30.1705 91.3581 30.1415C91.2421 30.1415 91.097 30.1415 90.894 30.1415C89.8206 30.1415 89.0083 30.4316 88.4571 30.9828C87.9349 31.534 87.4998 32.5494 87.2097 34.0579H86.6875L86.8906 29.5903H98.8138L98.9878 34.0579H98.4656C98.2626 32.6364 97.8564 31.6501 97.3052 31.0408C96.725 30.4606 95.8547 30.1415 94.6943 30.1415C94.4912 30.1415 94.3462 30.1415 94.2592 30.1415C94.1721 30.1415 94.0851 30.1415 94.0271 30.1705V44.4435H95.9417V45.0237H89.7336Z" fill="black"/>
<path d="M100.555 45.0237V44.4435H102.498V30.1705H100.555V29.5903H106.85V30.1705H104.848V44.4435H106.85V45.0237H100.555Z" fill="black"/>
<path d="M115.899 45.4007C114.855 45.4007 113.955 45.1977 113.172 44.8205C112.389 44.4434 111.663 43.8052 111.025 42.9929C110.445 42.2386 110.01 41.3683 109.691 40.382C109.372 39.3956 109.227 38.3513 109.227 37.2489C109.227 36.2045 109.372 35.2182 109.691 34.2898C110.01 33.3615 110.445 32.5492 111.054 31.824C111.75 30.9827 112.505 30.3445 113.288 29.9383C114.1 29.5322 114.971 29.3291 115.928 29.3291C116.856 29.3291 117.698 29.5032 118.452 29.8803C119.206 30.2574 119.902 30.8086 120.57 31.5629C121.237 32.3462 121.73 33.2165 122.107 34.2318C122.455 35.2182 122.629 36.2915 122.629 37.3939C122.629 38.4963 122.455 39.5407 122.136 40.527C121.817 41.5134 121.324 42.4127 120.715 43.167C120.076 43.9502 119.38 44.5304 118.626 44.9076C117.785 45.2267 116.914 45.4007 115.899 45.4007ZM115.899 29.8803C114.419 29.8803 113.375 30.4895 112.766 31.7079C112.157 32.9264 111.866 35.1311 111.866 38.3223C111.866 40.498 112.186 42.1226 112.853 43.196C113.52 44.2693 114.535 44.8205 115.899 44.8205C117.262 44.8205 118.249 44.2693 118.916 43.196C119.583 42.1226 119.902 40.469 119.902 38.2642C119.902 35.0441 119.612 32.8393 119.003 31.6499C118.394 30.4605 117.378 29.8803 115.899 29.8803Z" fill="black"/>
<path d="M125.125 45.0237V44.4435H126.866V30.1705H125.154V29.5903H129.651L136.236 40.6432V30.1705H134.495V29.5903H138.789V30.1705H136.99V45.4009H136.352L127.591 30.4316V44.4435H129.331V45.0237H125.125Z" fill="black"/>
</svg>
