<svg width="120" height="70" viewBox="0 0 120 70" fill="none" xmlns="http://www.w3.org/2000/svg">
<path d="M49.0028 30.125C49.5544 30.125 50.0016 29.6775 50.0016 29.1255C50.0016 28.5735 49.5544 28.126 49.0028 28.126C48.4511 28.126 48.0039 28.5735 48.0039 29.1255C48.0039 29.6775 48.4511 30.125 49.0028 30.125Z" fill="#80827E"/>
<path d="M64.0418 8.29297C64.5935 8.29297 65.0407 7.84548 65.0407 7.29346C65.0407 6.74144 64.5935 6.29395 64.0418 6.29395C63.4902 6.29395 63.043 6.74144 63.043 7.29346C63.043 7.84548 63.4902 8.29297 64.0418 8.29297Z" fill="#80827E"/>
<path d="M49.005 28.1255C49.005 28.1255 47.2175 28.6516 46.6918 29.6511C46.1661 30.598 46.7444 33.9648 50.7398 33.0178C54.7878 32.0709 66.3535 28.7042 67.8255 28.4937C69.2975 28.2833 71.6632 28.1255 72.1889 28.8094C72.662 29.4932 72.7146 30.3875 71.5055 30.5454C70.2963 30.6506 69.5078 31.2818 69.8758 32.3866C70.2438 33.4913 73.0826 32.7548 73.03 30.1771C72.9775 27.652 70.0335 26.1791 65.5123 27.2312C60.9912 28.2833 50.3192 31.6501 48.5318 31.6501C46.7444 31.6501 46.8495 30.4928 47.3227 30.0193C47.7432 29.5459 49.005 30.1245 49.005 30.1245V28.1255Z" fill="#80827E"/>
<path d="M54.4704 30.2299V16.605L52.4727 18.7618V30.756L54.4704 30.2299Z" fill="#80827E"/>
<path d="M68.1401 15.7627H66.0898V27.1782H68.1401V15.7627Z" fill="#80827E"/>
<path d="M68.1369 15.7638C68.1369 15.7638 72.4477 15.0273 72.2374 8.39894C72.0271 1.77059 68.4523 1.56016 65.4557 2.71749L65.0352 2.19143C65.0352 2.19143 66.6649 1.40234 68.6626 1.40234C70.6077 1.40234 74.5506 3.40137 74.5506 8.39894C74.5506 13.3965 69.8717 16.3424 68.1894 16.3424C66.4546 16.3424 68.1369 15.7638 68.1369 15.7638Z" fill="#80827E"/>
<path d="M63.4034 8.08293C63.4034 8.08293 65.0857 8.92463 66.0846 8.08293C67.0834 7.24123 67.6092 3.76924 64.7703 1.92803C61.9315 0.139427 59.8286 -0.860087 55.7806 0.981122C51.7326 2.82233 51.7852 6.13651 51.7852 6.13651L53.0995 7.50426C53.0995 7.50426 53.4675 1.665 59.8286 1.40197C66.1897 1.13894 66.4 5.03178 66.2423 6.29433C66.0846 7.55687 65.7692 7.45166 65.0857 7.29384C64.3497 7.13602 63.4034 8.08293 63.4034 8.08293Z" fill="#80827E"/>
<path d="M54.4703 8.03002C54.4703 8.03002 51.9995 4.82105 47.1629 6.55705C42.3264 8.29305 42.3789 13.6589 42.3789 15.1844C42.3789 16.71 44.4292 21.1815 48.4246 21.1815C52.42 21.1815 53.6818 18.0778 53.6818 18.0778L52.4726 18.8142C52.4726 18.8142 51.4212 20.4976 48.6875 20.4976C46.0063 20.4976 44.6921 16.9204 44.6921 13.8167C44.6921 10.7129 46.6898 6.9779 48.8452 6.82008C50.948 6.55705 52.7355 6.71487 54.4703 8.03002Z" fill="#80827E"/>
<path d="M65.9525 25.4834L54.3242 28.6011L54.5963 29.6173L66.2246 26.4996L65.9525 25.4834Z" fill="#80827E"/>
<path d="M118.028 55.7969H1.79297V56.849H118.028V55.7969Z" fill="#80827E"/>
<path d="M14.6208 42.0669C16.8814 42.0669 17.0391 38.9632 15.7774 37.648C14.4631 36.3329 12.9385 36.2803 10.5202 36.2803C8.10195 36.2803 4.42196 37.7532 4.42196 40.4361C4.42196 43.1191 7.57624 45.3811 10.6254 47.3801C13.6745 49.3792 12.7282 53.9559 7.68138 53.535C2.63454 53.1142 3.10768 51.5886 3.00254 51.0099C2.8974 50.4313 5.31568 48.9057 3.31797 47.6432C1.32026 46.2754 0.479118 49.9052 1.32026 51.0099C2.10883 52.1147 3.31797 54.2715 7.8391 54.2715C12.3602 54.2715 14.8311 51.6938 14.8311 49.0635C14.8311 46.4858 7.8391 41.4883 7.36596 41.2252C6.89282 40.9096 6.52482 37.2798 10.7305 36.9642C14.9362 36.6485 15.4619 38.5949 14.8837 39.0684C14.3054 39.5418 13.4117 39.8049 13.4117 40.8044C13.4117 41.8039 13.9374 42.0669 14.6208 42.0669Z" fill="#80827E"/>
<path d="M21.4014 35.8062C21.4014 35.8062 18.7728 37.4369 18.2997 39.5412C17.8265 41.6454 15.8288 50.5884 15.7763 51.5879C15.7237 52.5875 16.4071 54.0604 17.5637 54.0604C18.7203 54.0604 19.8768 53.3765 20.4025 51.5879C20.4025 51.5879 19.6665 53.3765 17.8265 53.3765C17.8265 53.3765 17.9317 50.1676 18.878 46.8534C19.8243 43.5918 21.2437 37.8052 21.4014 35.8062Z" fill="#80827E"/>
<path d="M23.4033 41.9609H16.1484V42.487H23.4033V41.9609Z" fill="#80827E"/>
<path d="M32.5442 44.0653C32.5442 44.0653 31.3351 41.8032 27.5499 41.8032C23.7648 41.8032 20.3477 44.9596 20.3477 48.3264C20.3477 51.6932 22.0299 54.0604 26.2356 54.0604C30.4413 54.0604 31.1773 51.3775 31.1773 51.3775C31.1773 51.3775 31.3351 50.9041 31.0196 51.2723C29.7053 52.9031 28.6539 53.6396 26.2356 53.6396C22.5031 53.6396 22.5557 49.0102 22.9237 47.6425C23.2391 46.2747 24.8162 42.3819 28.0231 42.3819C29.9156 42.3819 31.5979 43.0658 32.4916 44.2231C32.8071 44.8018 32.5442 44.0653 32.5442 44.0653Z" fill="#80827E"/>
<path d="M99.4685 45.8544C99.4685 43.6975 98.4697 41.8037 94.632 41.8037C90.7943 41.8037 87.4297 44.9601 87.4297 48.3269C87.4297 51.6936 89.112 54.1661 93.3177 54.1661C97.4708 54.1661 99.048 52.1671 99.048 52.1671C99.048 52.1671 99.4159 51.0624 99.1531 51.4306C97.8388 53.0614 95.736 53.6927 93.2651 53.6927C89.5325 53.6927 89.5851 49.0633 89.9531 47.6956C90.2685 46.3278 91.9508 42.5928 95.1577 42.5928C96.1565 42.5928 97.3131 43.5397 97.3131 45.2757C97.3131 47.906 95.7885 48.5373 89.848 48.4321C89.3223 48.4321 89.848 48.8529 89.848 48.8529C89.848 48.8529 92.6343 49.0633 93.528 49.0107C96.6297 48.8003 99.4685 48.2742 99.4685 45.8544Z" fill="#80827E"/>
<path d="M35.2825 42.2241C35.2825 42.2241 33.0745 42.2767 32.3911 44.4862C31.7077 46.6956 30.6563 51.2723 31.0768 52.5875C31.4974 53.9026 32.4963 54.2183 33.39 54.2183C34.2837 54.2183 36.9123 51.0619 36.9123 51.0619C36.9123 51.0619 34.3363 53.6396 33.3374 53.6396C32.3385 53.6396 35.2825 42.2241 35.2825 42.2241Z" fill="#80827E"/>
<path d="M40.9105 42.2246C40.8053 42.2772 38.2293 42.2246 38.2293 42.2246L35.9688 54.061H38.4396L40.9105 42.2246Z" fill="#80827E"/>
<path d="M38.222 42.2769H36.75V42.8029H38.222V42.2769Z" fill="#80827E"/>
<path d="M77.757 35.8589H75.6016V36.385H77.757V35.8589Z" fill="#80827E"/>
<path d="M78.2325 53.5869H71.9766V54.113H78.2325V53.5869Z" fill="#80827E"/>
<path d="M52.4709 42.2769H50V42.8029H52.4709V42.2769Z" fill="#80827E"/>
<path d="M39.7518 53.5342H34.6523V54.0602H39.7518V53.5342Z" fill="#80827E"/>
<path d="M40.4351 44.4868C40.4351 44.4868 43.0636 42.0669 45.7448 42.0669C48.3733 42.0669 49.8453 43.2768 49.4247 45.6441C49.0042 48.0114 46.6385 53.798 47.8476 53.798C49.0568 53.798 50.4762 51.1677 50.4762 51.1677V51.6938C50.4762 51.6938 49.1619 54.4819 47.6899 54.4819C46.2179 54.4819 45.0613 53.1141 45.7973 50.1682C46.4808 47.2223 48.163 44.1185 46.7436 43.2242C45.3242 42.3299 41.7493 43.5925 40.2773 45.0654L40.4351 44.4868Z" fill="#80827E"/>
<path d="M78.2866 44.4863C78.2866 44.4863 80.9152 42.0664 83.5963 42.0664C86.2249 42.0664 87.6969 43.2763 87.2763 45.6436C86.8557 48.0109 84.49 53.7975 85.6992 53.7975C86.9083 53.8501 88.3277 51.1672 88.3277 51.1672V51.6933C88.3277 51.6933 87.0135 54.4814 85.5415 54.4814C84.0695 54.4814 82.9129 53.1137 83.6489 50.1677C84.3323 47.2218 86.0146 44.118 84.5952 43.2237C83.1758 42.3294 79.6009 43.592 78.1289 45.0649L78.2866 44.4863Z" fill="#80827E"/>
<path d="M52.264 42.2246H54.7874C54.7874 42.2246 52.264 51.378 52.4743 52.9036C52.6845 54.4292 53.8411 53.4297 55.0503 51.5885V52.325C55.0503 52.325 53.7885 54.1662 52.5268 54.1662C51.2651 54.1662 49.7931 53.5349 50.5291 50.3785C51.2651 47.2748 52.264 42.2246 52.264 42.2246Z" fill="#80827E"/>
<path d="M54.4692 40.4876C55.4274 40.4876 56.2041 39.7104 56.2041 38.7516C56.2041 37.7929 55.4274 37.0156 54.4692 37.0156C53.5111 37.0156 52.7344 37.7929 52.7344 38.7516C52.7344 39.7104 53.5111 40.4876 54.4692 40.4876Z" fill="#80827E"/>
<path d="M74.2322 42.7514C74.9581 42.7514 75.5465 42.1626 75.5465 41.4362C75.5465 40.7099 74.9581 40.1211 74.2322 40.1211C73.5064 40.1211 72.918 40.7099 72.918 41.4362C72.918 42.1626 73.5064 42.7514 74.2322 42.7514Z" fill="#80827E"/>
<path d="M74.4988 51.7464V50.7995C74.4988 50.7995 72.5536 53.5876 68.4531 53.5876C64.3525 53.5876 63.8794 50.3261 63.8794 45.6967C63.8794 41.0674 67.0862 36.8063 70.7136 36.8063C74.3411 36.8063 75.6553 39.1736 75.6553 39.9101C75.6553 40.6466 74.1833 40.1205 74.1833 40.1205V42.8034C74.1833 42.8034 76.1811 43.4347 76.1811 40.0153C76.1811 36.5959 71.9228 36.2803 70.6085 36.2803C68.1902 36.2803 60.8828 37.1746 60.8828 46.7489C60.9354 55.4288 71.3971 55.6393 74.4988 51.7464Z" fill="#80827E"/>
<path d="M63.4635 20.7606C63.6958 20.7606 63.8841 20.5722 63.8841 20.3398C63.8841 20.1074 63.6958 19.9189 63.4635 19.9189C63.2313 19.9189 63.043 20.1074 63.043 20.3398C63.043 20.5722 63.2313 20.7606 63.4635 20.7606Z" fill="#80827E"/>
<path d="M63.5665 23.6011V23.2854C63.5665 23.2854 62.9357 24.1798 61.6214 24.1798C60.3071 24.1798 60.1494 23.1276 60.1494 21.6547C60.1494 20.1817 61.1483 18.8139 62.3574 18.8139C63.514 18.8139 63.9345 19.5504 63.9345 19.8135C63.9345 20.0765 63.4614 19.8661 63.4614 19.8661V20.7078C63.4614 20.7078 64.0923 20.9182 64.0923 19.8135C64.0923 18.7087 62.7254 18.6035 62.3048 18.6035C61.5163 18.6035 59.2031 18.8665 59.2031 21.9703C59.2031 24.811 62.5677 24.8636 63.5665 23.6011Z" fill="#80827E"/>
<path d="M60.5714 15.5003C61.36 15.3425 61.2023 14.1852 60.6766 13.8169C60.0983 13.4487 59.5726 13.5013 58.6788 13.7117C57.7851 13.9221 56.576 14.7112 56.7863 15.6581C56.9966 16.605 58.3108 17.2363 59.5726 17.7098C60.8343 18.1832 60.8343 19.9192 58.9417 20.1823C57.1017 20.3927 57.1543 19.814 57.0491 19.6036C56.8914 19.1301 57.7326 18.6567 56.8914 18.341C56.0503 18.0254 56.0503 19.3932 56.4183 19.7614C56.7863 20.077 57.3646 20.8135 59.0468 20.4453C60.7291 20.077 61.4126 18.9723 61.2023 18.0254C60.992 17.0785 58.1006 15.816 57.8903 15.7107C57.68 15.6581 57.2594 14.343 58.784 13.9221C60.3086 13.5013 60.624 14.1326 60.4663 14.3956C60.3086 14.606 59.9931 14.7638 60.0457 15.1321C60.0983 15.5003 60.3086 15.5529 60.5714 15.5003Z" fill="#80827E"/>
<path d="M80.2325 35.8584H77.6565L73.9766 53.8496H76.5526L80.2325 35.8584Z" fill="#80827E"/>
<path d="M100.365 56.0072L104.518 38.9629H102.1L97.7891 56.0072H100.365Z" fill="#80827E"/>
<path d="M104.52 38.9628C104.52 38.9628 104.73 36.8585 106.097 36.5429C107.464 36.2273 109.094 37.0163 108.095 38.4893C107.096 39.9623 107.516 40.9092 109.251 40.9092C110.986 40.9092 110.934 35.9116 106.728 35.9116C102.522 35.9116 102.102 39.0154 102.102 39.0154H104.52V38.9628Z" fill="#80827E"/>
<path d="M112.983 40.3302C113.854 40.3302 114.561 39.6236 114.561 38.752C114.561 37.8804 113.854 37.1738 112.983 37.1738C112.112 37.1738 111.406 37.8804 111.406 38.752C111.406 39.6236 112.112 40.3302 112.983 40.3302Z" fill="#80827E"/>
<path d="M117.555 46.5378C118.252 46.5378 118.816 45.9725 118.816 45.2752C118.816 44.578 118.252 44.0127 117.555 44.0127C116.858 44.0127 116.293 44.578 116.293 45.2752C116.293 45.9725 116.858 46.5378 117.555 46.5378Z" fill="#80827E"/>
<path d="M114.51 38.2788C114.51 38.2788 114.878 40.4357 113.984 41.5404C113.09 42.6451 113.038 42.4873 113.038 42.4873C113.038 42.4873 113.406 40.9617 113.038 40.4357C112.617 39.857 114.51 38.2788 114.51 38.2788Z" fill="#80827E"/>
<path d="M117.558 46.5384C117.558 46.5384 120.659 45.9071 119.187 43.2242C117.715 40.5413 109.094 41.3304 109.094 44.855C109.094 48.4322 115.613 48.6426 115.613 51.6938C115.613 54.7449 109.251 53.6402 108.673 52.8511C108.095 52.062 108.726 51.1677 109.462 51.0099C110.145 50.8521 110.355 49.1161 108.883 49.2739C107.464 49.4317 106.15 50.9047 107.306 52.5355C108.463 54.1663 110.881 54.1663 112.248 54.1663C113.615 54.1663 118.189 54.061 118.189 51.0099C118.189 47.9588 113.299 46.591 111.985 45.2758C110.671 43.9607 113.299 41.9091 115.35 41.9091C117.4 41.9091 119.03 43.6451 117.558 44.0133C116.138 44.3815 117.558 46.5384 117.558 46.5384Z" fill="#80827E"/>
<path d="M10.681 62.2663V62.6346C10.681 63.6341 10.3655 64.318 9.68211 64.6336C10.5232 64.9492 10.8387 65.6857 10.8387 66.7378V67.5269C10.8387 69.0525 10.0501 69.8416 8.47297 69.8416H6.05469V59.9517H8.36782C9.99753 60.0043 10.681 60.7407 10.681 62.2663ZM7.63183 61.372V64.0023H8.26268C8.84097 64.0023 9.20897 63.7393 9.20897 62.9502V62.4241C9.20897 61.7403 8.94611 61.4246 8.4204 61.4246H7.63183V61.372ZM7.63183 65.4227V68.4738H8.52554C9.05125 68.4738 9.31411 68.2108 9.31411 67.5269V66.6852C9.31411 65.7909 8.99868 65.4753 8.31525 65.4753H7.63183V65.4227Z" fill="#80827E"/>
<path d="M12.4141 62.3729C12.4141 60.7947 13.2552 59.9004 14.7798 59.9004C16.3043 59.9004 17.1455 60.7947 17.1455 62.3729V67.5283C17.1455 69.1064 16.3043 70.0007 14.7798 70.0007C13.2552 70.0007 12.4141 69.1064 12.4141 67.5283V62.3729ZM13.9386 67.5809C13.9386 68.2647 14.2541 68.5278 14.7272 68.5278C15.2003 68.5278 15.5158 68.2647 15.5158 67.5809V62.2677C15.5158 61.5838 15.2003 61.3208 14.7272 61.3208C14.2541 61.3208 13.9386 61.5838 13.9386 62.2677V67.5809Z" fill="#80827E"/>
<path d="M18.8281 60.0059H21.299C22.8235 60.0059 23.6121 60.8476 23.6121 62.4257V67.4233C23.6121 69.0015 22.8761 69.8432 21.299 69.8432H18.8281V60.0059ZM20.4053 61.3736V68.4228H21.299C21.7721 68.4228 22.0875 68.1598 22.0875 67.4759V62.3205C22.0875 61.6366 21.7721 61.3736 21.299 61.3736H20.4053Z" fill="#80827E"/>
<path d="M26.6131 66.5816L24.668 60.0059H26.2451L27.4542 64.4774L28.6634 60.0059H30.1354L28.1902 66.5816V69.8432H26.6657V66.5816H26.6131Z" fill="#80827E"/>
<path d="M35.9699 64.372H37.9676V65.7924H35.9699V69.843H34.4453V59.9531H38.5459V61.3735H35.9699V64.372Z" fill="#80827E"/>
<path d="M39.8555 62.3729C39.8555 60.7947 40.6966 59.9004 42.2212 59.9004C43.7457 59.9004 44.5869 60.7947 44.5869 62.3729V67.5283C44.5869 69.1064 43.7457 70.0007 42.2212 70.0007C40.6966 70.0007 39.8555 69.1064 39.8555 67.5283V62.3729ZM41.38 67.5809C41.38 68.2647 41.6955 68.5278 42.1686 68.5278C42.6417 68.5278 42.9572 68.2647 42.9572 67.5809V62.2677C42.9572 61.5838 42.6417 61.3208 42.1686 61.3208C41.6955 61.3208 41.38 61.5838 41.38 62.2677V67.5809Z" fill="#80827E"/>
<path d="M46.168 62.3729C46.168 60.7947 47.0091 59.9004 48.5337 59.9004C50.0582 59.9004 50.8994 60.7947 50.8994 62.3729V67.5283C50.8994 69.1064 50.0582 70.0007 48.5337 70.0007C47.0091 70.0007 46.168 69.1064 46.168 67.5283V62.3729ZM47.7451 67.5809C47.7451 68.2647 48.0605 68.5278 48.5337 68.5278C49.0068 68.5278 49.3222 68.2647 49.3222 67.5809V62.2677C49.3222 61.5838 49.0068 61.3208 48.5337 61.3208C48.0605 61.3208 47.7451 61.5838 47.7451 62.2677V67.5809Z" fill="#80827E"/>
<path d="M52.6367 60.0059H55.1076C56.6321 60.0059 57.4207 60.8476 57.4207 62.4257V67.4233C57.4207 69.0015 56.6847 69.8432 55.1076 69.8432H52.6367V60.0059ZM54.2139 61.3736V68.4228H55.1076C55.5807 68.4228 55.8961 68.1598 55.8961 67.4759V62.3205C55.8961 61.6366 55.5807 61.3736 55.1076 61.3736H54.2139Z" fill="#80827E"/>
<path d="M68.7239 66.1604V67.4755C68.7239 69.0537 67.9354 69.948 66.4108 69.948C64.8862 69.948 64.0977 69.0537 64.0977 67.4755V62.3201C64.0977 60.742 64.8862 59.8477 66.4108 59.8477C67.9354 59.8477 68.7239 60.742 68.7239 62.3201V63.267H67.2519V62.2149C67.2519 61.531 66.9365 61.268 66.4634 61.268C65.9902 61.268 65.6748 61.531 65.6748 62.2149V67.5281C65.6748 68.212 65.9902 68.475 66.4634 68.475C66.9365 68.475 67.2519 68.212 67.2519 67.5281V66.1078H68.7239V66.1604Z" fill="#80827E"/>
<path d="M70.2969 62.3729C70.2969 60.7947 71.138 59.9004 72.6626 59.9004C74.1871 59.9004 75.0283 60.7947 75.0283 62.3729V67.5283C75.0283 69.1064 74.1871 70.0007 72.6626 70.0007C71.138 70.0007 70.2969 69.1064 70.2969 67.5283V62.3729ZM71.874 67.5809C71.874 68.2647 72.1894 68.5278 72.6626 68.5278C73.1357 68.5278 73.4512 68.2647 73.4512 67.5809V62.2677C73.4512 61.5838 73.1357 61.3208 72.6626 61.3208C72.1894 61.3208 71.874 61.5838 71.874 62.2677V67.5809Z" fill="#80827E"/>
<path d="M78.8149 59.8477C80.3395 59.8477 81.0755 60.742 81.0755 62.3201V62.6358H79.6035V62.2149C79.6035 61.531 79.3406 61.268 78.8149 61.268C78.3418 61.268 78.0264 61.531 78.0264 62.2149C78.0264 64.2666 81.0755 64.6348 81.0755 67.4229C81.0755 69.0011 80.2869 69.8954 78.7624 69.8954C77.2378 69.8954 76.4492 69.0011 76.4492 67.4229V66.7916H77.9212V67.4755C77.9212 68.1594 78.2366 68.4224 78.7098 68.4224C79.1829 68.4224 79.4984 68.1594 79.4984 67.4755C79.4984 65.4239 76.4492 65.0556 76.4492 62.2675C76.5544 60.7946 77.3429 59.8477 78.8149 59.8477Z" fill="#80827E"/>
<path d="M86.0698 67.0025L87.1212 60.0059H89.2766V69.8958H87.8046V62.794L86.7532 69.8958H85.2812L84.1247 62.8992V69.8958H82.7578V60.0059H84.9132L86.0698 67.0025Z" fill="#80827E"/>
<path d="M92.6925 64.1617H94.7954V65.5821H92.6925V68.4754H95.3737V69.8958H91.168V60.0059H95.3737V61.4262H92.6925V64.1617Z" fill="#80827E"/>
<path d="M96.6328 60.0059H101.417V61.4262H99.7871V69.8958H98.2625V61.4262H96.6328V60.0059Z" fill="#80827E"/>
<path d="M102.84 60.0059H104.364V69.8958H102.84V60.0059Z" fill="#80827E"/>
<path d="M110.724 66.1604V67.4755C110.724 69.0537 109.935 69.948 108.411 69.948C106.886 69.948 106.098 69.0537 106.098 67.4755V62.3201C106.098 60.742 106.886 59.8477 108.411 59.8477C109.935 59.8477 110.724 60.742 110.724 62.3201V63.267H109.305V62.2149C109.305 61.531 108.989 61.268 108.516 61.268C108.043 61.268 107.727 61.531 107.727 62.2149V67.5281C107.727 68.212 108.043 68.475 108.516 68.475C108.989 68.475 109.305 68.212 109.305 67.5281V66.1078H110.724V66.1604Z" fill="#80827E"/>
<path d="M114.512 59.8477C116.037 59.8477 116.773 60.742 116.773 62.3201V62.6358H115.301V62.2149C115.301 61.531 115.038 61.268 114.512 61.268C114.039 61.268 113.724 61.531 113.724 62.2149C113.724 64.2666 116.773 64.6348 116.773 67.4229C116.773 69.0011 115.984 69.8954 114.46 69.8954C112.935 69.8954 112.146 69.0011 112.146 67.4229V66.7916H113.618V67.4755C113.618 68.1594 113.934 68.4224 114.407 68.4224C114.88 68.4224 115.196 68.1594 115.196 67.4755C115.196 65.4239 112.146 65.0556 112.146 62.2675C112.252 60.7946 113.04 59.8477 114.512 59.8477Z" fill="#80827E"/>
</svg>
