<svg width="65" height="62" viewBox="0 0 65 62" fill="none" xmlns="http://www.w3.org/2000/svg">
<path d="M43 13.5C43 20.7 39.6667 23.8333 38 24.5C36.3333 23.6667 33 20.3 33 13.5C33 6.7 36.3333 2.33333 38 1C39.6667 2.16667 43 6.3 43 13.5Z" stroke="#9CA896"/>
<path d="M26.4099 18.8388C31.5011 23.93 31.3597 28.5026 30.6525 30.1525C28.8848 30.7418 24.1472 30.7182 19.3388 25.9099C14.5305 21.1016 13.7998 15.6569 14.0355 13.5355C16.039 13.182 21.3187 13.7477 26.4099 18.8388Z" stroke="#9CA896"/>
<path d="M48.2776 18.8388C43.1864 23.93 43.3278 28.5026 44.035 30.1525C45.8027 30.7418 50.5403 30.7182 55.3487 25.9099C60.157 21.1016 60.8877 15.6569 60.652 13.5355C58.6485 13.182 53.3688 13.7477 48.2776 18.8388Z" stroke="#9CA896"/>
<path d="M38 37L24 22.5" stroke="#9CA896"/>
<path d="M38 13V36.5" stroke="#9CA896"/>
<path d="M38 36.5L51.5 22.5" stroke="#9CA896"/>
<path d="M24 49H41C41.8333 48.8333 43.5 47.9 43.5 45.5C43.5 43.1 41.8333 42.1667 41 42H28.5C26.1667 41 21.1 39 19.5 39C17.5 39 9.5 40.5 1.5 43" stroke="#9CA896"/>
<path d="M1 59C4.16667 57.8333 10.9 55.5 12.5 55.5C14.5 55.5 29 61 31.5 61C33.5 61 51.3333 50.3333 60 45C59.8333 43.1667 58.8 39.5 56 39.5C53.2 39.5 49.1667 41.8333 47.5 43" stroke="#9CA896"/>
</svg>
