<svg width="197" height="82" viewBox="0 0 197 82" fill="none" xmlns="http://www.w3.org/2000/svg">
<path d="M74.3542 30.9123C74.3542 30.9123 72.9385 30.6676 72.9385 28.6402C72.9385 26.6127 74.4591 25.4767 76.9584 24.9698C79.4403 24.4804 88.7385 22.3831 88.7909 16.2309C88.8259 10.0787 79.8597 9.48448 77.4653 14.6055C75.5427 18.7128 75.3679 24.026 77.1507 26.7526C78.9334 29.4791 81.7299 31.6638 87.6024 31.489C93.475 31.3143 98.4911 25.4068 98.4911 25.4068V5.98891C98.4911 5.98891 95.6597 1.18252 90.1716 0.256193C82.9184 -0.949776 79.1781 2.49335 79.1781 2.49335C79.1781 2.49335 86.4314 1.37477 89.4376 3.66437C93.3876 6.65307 95.6422 9.90394 95.6422 16.9125C95.6422 23.9211 90.7659 30.5977 84.4215 30.2306C77.8673 29.8461 75.9797 22.8725 78.2693 17.9787C80.5589 13.0849 85.3303 12.1236 85.3478 16.4232C85.3653 20.076 81.2405 22.2957 75.5427 24.0959C70.2819 25.7563 70.177 28.9722 70.8761 29.9685C71.5753 30.9647 73.2881 30.8773 74.3542 30.9123Z" fill="#699C3F"/>
<path d="M122.572 0.588281C122.572 0.588281 123.988 0.83297 123.988 2.8604C123.988 4.88782 122.468 6.02388 119.968 6.53074C117.469 7.03759 108.188 9.11745 108.136 15.2696C108.101 21.4218 117.067 22.0161 119.461 16.8951C121.384 12.7878 121.559 7.47454 119.776 4.748C117.993 2.02146 115.197 -0.163265 109.342 0.0115133C103.469 0.186291 98.4531 6.09379 98.4531 6.09379V25.5116C98.4531 25.5116 101.285 30.318 106.773 31.2444C114.026 32.4503 117.766 29.0072 117.766 29.0072C117.766 29.0072 110.513 30.1258 107.507 27.8362C103.557 24.8475 101.302 21.5966 101.302 14.588C101.302 7.57941 106.178 0.902882 112.523 1.26992C119.077 1.65443 120.965 8.62807 118.675 13.5219C116.403 18.4331 111.614 19.3769 111.596 15.0774C111.579 11.4245 115.704 9.20484 121.401 7.40463C126.662 5.74423 126.767 2.52832 126.068 1.53208C125.334 0.553325 123.639 0.623237 122.572 0.588281Z" fill="#699C3F"/>
<path d="M3.67215 46.6072H0.316406V64.6443H3.67215V46.6072Z" fill="#699C3F"/>
<path d="M14.5979 46.6072H11.2422V64.6443H14.5979V46.6072Z" fill="#699C3F"/>
<path d="M62.3479 46.6072H58.9922V64.6443H62.3479V46.6072Z" fill="#699C3F"/>
<path d="M111.071 46.6072H107.715V64.6443H111.071V46.6072Z" fill="#699C3F"/>
<path d="M134.141 46.6072H130.785V64.6443H134.141V46.6072Z" fill="#699C3F"/>
<path d="M153.59 46.6072H150.234V64.6443H153.59V46.6072Z" fill="#699C3F"/>
<path d="M165.274 46.6072H161.918V64.6443H165.274V46.6072Z" fill="#699C3F"/>
<path d="M186.43 48.0405L189.541 46.7996L196.672 64.6444H193.054L186.43 48.0405Z" fill="#699C3F"/>
<path d="M189.429 48.0405L186.318 46.7996L179.188 64.6444H182.805L189.429 48.0405Z" fill="#699C3F"/>
<path d="M33.9456 46.6072H30.5898V64.6443H33.9456V46.6072Z" fill="#699C3F"/>
<path d="M3.33203 53.8653V56.7491H11.7039V53.8653H3.33203Z" fill="#699C3F"/>
<path d="M102.348 46.5959V49.4797H116.435V46.5959H102.348Z" fill="#699C3F"/>
<path d="M183.266 57.6613V60.5452H192.599V57.6613H183.266Z" fill="#699C3F"/>
<path d="M153.473 46.4782L151.117 48.1414L162.174 63.8058L164.53 62.1427L153.473 46.4782Z" fill="#699C3F"/>
<path d="M43.5774 51.9556C43.5774 58.3176 36.3766 57.7583 33.9297 57.7583V55.2764H37.2854C38.1069 55.2764 38.841 54.9443 39.3828 54.4025C39.9246 53.8607 40.2567 53.1266 40.2567 52.3052C40.2567 50.6798 38.9283 49.3514 37.3029 49.3514H33.9472V46.6074C33.9472 46.6074 43.5774 45.5937 43.5774 51.9556Z" fill="#699C3F"/>
<path d="M34.2031 57.7582C34.2031 57.7582 36.4578 64.155 43.379 64.6444L43.8334 61.848C43.8334 61.848 39.5513 61.6033 37.5064 57.6708L34.2031 57.7582Z" fill="#699C3F"/>
<path d="M186.312 46.7996H189.546L187.92 47.4462L186.312 46.7996Z" fill="#699C3F"/>
<path d="M87.7223 50.1901C87.8097 50.2251 88.7011 47.5859 88.7011 47.5859C88.7011 47.5859 87.0931 46.4149 83.4402 46.4149C79.9796 46.4149 77.4803 47.918 77.4803 51.3786C77.4803 54.8392 79.2456 55.416 82.9509 56.9191C85.6774 58.0202 86.1143 58.8766 86.0619 60.0127C86.027 60.8516 85.7648 62.0576 82.5838 62.0576C79.4029 62.0576 78.1794 60.7992 78.1794 60.7992L77.1133 63.6306C77.1133 63.6306 78.3892 64.8715 82.9858 64.8715C87.8097 64.8715 89.4701 62.7392 89.4701 59.6981C89.4701 56.6569 87.8621 55.6956 85.59 54.6295C83.6849 53.7206 80.9584 53.4585 80.9584 50.9766C80.9584 48.7569 84.9259 48.8094 87.7223 50.1901Z" fill="#699C3F"/>
<path d="M24.2274 74.205L24.4896 73.366C24.4896 73.366 23.8079 72.9116 22.165 72.9116C20.5221 72.9116 18.25 73.5758 18.25 77.5957C18.25 81.6156 21.1513 81.8777 22.5321 81.8777C23.9128 81.8777 24.4896 81.3709 24.4896 81.3709V80.3047C24.4896 80.3047 24.14 80.9864 22.4971 80.9864C20.8542 80.9864 19.3511 80.1125 19.3511 77.5432C19.3511 74.974 20.7144 73.8205 22.165 73.8205C23.6157 73.803 24.2274 74.205 24.2274 74.205Z" fill="#699C3F"/>
<path d="M40.9541 72.8939C38.7868 72.8939 37.0391 74.9039 37.0391 77.3857C37.0391 79.8676 38.7868 81.8775 40.9541 81.8775C43.1213 81.8775 44.8691 79.8676 44.8691 77.3857C44.8691 74.9039 43.1213 72.8939 40.9541 72.8939ZM40.9541 81.1085C39.3461 81.1085 38.0353 79.4481 38.0353 77.3857C38.0353 75.3408 39.3461 73.6629 40.9541 73.6629C42.562 73.6629 43.8729 75.3233 43.8729 77.3857C43.8729 79.4306 42.562 81.1085 40.9541 81.1085Z" fill="#699C3F"/>
<path d="M62.7308 74.2225L63.0279 73.436C63.0279 73.436 62.5036 72.9116 60.7208 72.9116C58.9381 72.9116 57.7321 73.5933 57.7321 75.2886C57.7321 76.984 59.5149 77.3335 60.6509 77.8928C61.8394 78.487 62.3463 78.6968 62.3463 79.728C62.3463 80.7592 61.3151 81.0213 60.0916 81.0213C58.8682 81.0213 57.837 80.4446 57.837 80.4446L57.6797 81.4233C57.6797 81.4233 58.0817 81.9651 60.179 81.9651C62.2589 81.9651 63.4474 81.0738 63.4474 79.5532C63.4474 78.0326 62.4686 77.718 61.0704 77.1063C59.6722 76.4946 58.7983 76.0576 58.7983 75.1663C58.7983 74.2749 59.6197 73.803 60.7907 73.803C61.9618 73.803 62.7308 74.2225 62.7308 74.2225Z" fill="#699C3F"/>
<path d="M160.309 74.205L160.572 73.366C160.572 73.366 159.89 72.9116 158.247 72.9116C156.604 72.9116 154.332 73.5758 154.332 77.5957C154.332 81.6156 157.233 81.8777 158.614 81.8777C159.995 81.8777 160.572 81.3709 160.572 81.3709V80.3047C160.572 80.3047 160.222 80.9864 158.579 80.9864C156.936 80.9864 155.433 80.1125 155.433 77.5432C155.433 74.974 156.796 73.8205 158.247 73.8205C159.698 73.8205 160.309 74.205 160.309 74.205Z" fill="#699C3F"/>
<path d="M178.082 74.2225L178.379 73.436C178.379 73.436 177.855 72.9116 176.072 72.9116C174.29 72.9116 173.084 73.5933 173.084 75.2886C173.084 76.984 174.866 77.3335 176.002 77.8928C177.191 78.487 177.698 78.6968 177.698 79.728C177.698 80.7592 176.667 81.0213 175.443 81.0213C174.22 81.0213 173.189 80.4446 173.189 80.4446L173.031 81.4233C173.031 81.4233 173.433 81.9651 175.531 81.9651C177.61 81.9651 178.799 81.0738 178.799 79.5532C178.799 78.0326 177.82 77.718 176.422 77.1063C175.024 76.4946 174.15 76.0576 174.15 75.1663C174.15 74.2749 174.971 73.803 176.142 73.803C177.313 73.803 178.082 74.2225 178.082 74.2225Z" fill="#699C3F"/>
<path d="M77.658 73.4358H76.6094V81.93H77.658V73.4358Z" fill="#699C3F"/>
<path d="M82.951 74.1873H81.9023V81.9474H82.951V74.1873Z" fill="#699C3F"/>
<path d="M88.2635 74.9739H87.2148V81.93H88.2635V74.9739Z" fill="#699C3F"/>
<path d="M140.963 73.1736H139.914V81.93H140.963V73.1736Z" fill="#699C3F"/>
<path d="M76.6094 73.436C76.6094 73.436 77.7105 72.9116 79.7204 72.9116C81.7304 72.9116 82.3421 73.803 82.3421 73.803C82.3421 73.803 82.814 72.9116 85.3308 72.9116C87.8476 72.9116 88.2846 74.974 88.2846 74.974H87.2359C87.2359 74.974 86.5193 73.8554 85.3133 73.8554C84.1074 73.8554 82.9888 74.6594 82.9888 74.6594L81.9401 75.0789C81.9401 75.0789 81.3109 73.8379 79.5456 73.8379C77.7804 73.8379 77.693 74.205 77.693 74.205L76.6094 73.436Z" fill="#699C3F"/>
<path d="M107.714 73.9428C107.084 73.3136 106.193 72.9116 105.232 72.9116C103.292 72.9116 101.719 74.4846 101.719 76.4247V78.487C101.719 80.4271 103.292 82.0001 105.232 82.0001H106.193C106.7 82.0001 107.399 81.8428 108.081 81.5806V80.6892C107.556 80.9689 106.927 81.1437 106.508 81.1437H105.651C104.323 81.1437 102.837 80.06 102.837 78.7317V77.718H108.762V76.4247C108.745 75.4459 108.343 74.572 107.714 73.9428ZM102.82 76.6694V76.2499C102.82 74.9216 103.903 73.8379 105.232 73.8379C105.896 73.8379 106.508 74.1001 106.927 74.5371C107.364 74.974 107.626 75.5682 107.626 76.2324V76.6519H102.82V76.6694Z" fill="#699C3F"/>
<path d="M123.328 73.9777V73.5757V73.1562H126.789V73.9777H123.328Z" fill="#699C3F"/>
<path d="M127.223 81.3879C126.612 81.7549 125.913 81.9996 125.178 81.9996C122.487 81.9996 122.242 79.5527 122.242 79.5527V70.4468L123.326 70.3245L123.343 73.5579V73.9598L123.361 79.5003C123.361 79.5003 123.693 81.0034 125.178 81.0384C125.79 81.0384 126.384 80.8111 126.926 80.4616L127.223 81.3879Z" fill="#699C3F"/>
<path d="M140.456 71.2685C140.939 71.2685 141.33 70.8773 141.33 70.3946C141.33 69.912 140.939 69.5208 140.456 69.5208C139.973 69.5208 139.582 69.912 139.582 70.3946C139.582 70.8773 139.973 71.2685 140.456 71.2685Z" fill="#699C3F"/>
</svg>
