<svg width="9" height="17" viewBox="0 0 9 17" fill="none" xmlns="http://www.w3.org/2000/svg">
<path fill-rule="evenodd" clip-rule="evenodd" d="M7.88883 0H1.11098C0.499888 0 0 0.517292 0 1.14966V15.8503C0 16.4827 0.499888 17 1.11098 17H7.88883C8.49993 17 9 16.4827 9 15.8503V1.14966C8.99982 0.517292 8.49993 0 7.88883 0ZM4.49991 16.0114C4.11784 16.0114 3.80641 15.6889 3.80641 15.2937C3.80641 14.8985 4.11802 14.5761 4.49991 14.5761C4.8818 14.5761 5.1934 14.8985 5.1934 15.2937C5.1934 15.6889 4.88198 16.0114 4.49991 16.0114ZM8.32192 13.8425H0.677895V1.49681H8.32192V13.8425Z" fill="#2F3327"/>
</svg>
