<svg width="60" height="75" viewBox="0 0 60 75" fill="none" xmlns="http://www.w3.org/2000/svg">
<path d="M35.8581 17.4445V29.3248H47.1444V40.0171H35.8581V51.8974H23.9777V40.0171H12.6914V28.7308H23.9777V17.4445H35.8581Z" stroke="white" stroke-width="2"/>
<path d="M53 9.5C56 10 57.5 10.3333 59 10.5C59 17.8333 59 33.6 59 38C59 43.5 53 54 43 60C35 64.8 31 70 30 72C29.3333 70.3333 25.8 65.6 17 60C8.2 54.4 3 43 1.5 38V10.5C11.9 10.5 24.8333 4.5 30 1.5C30.5 2 37.5 6 48.5 8.5" stroke="white" stroke-width="2"/>
</svg>
