<svg width="32" height="18" viewBox="0 0 32 18" fill="none" xmlns="http://www.w3.org/2000/svg">
<path d="M30.7213 15.3562C30.7213 15.2466 30.602 15.2466 30.602 15.137C30.1245 14.2603 29.0503 13.1644 27.6179 11.9589C26.9017 11.411 26.5436 10.9726 26.3049 10.7534C25.9468 10.3151 25.9468 9.98631 26.0662 9.54795C26.1856 9.21919 26.663 8.67123 27.4985 7.68493C27.976 7.13698 28.2147 6.80822 28.5728 6.47946C30.3632 4.28767 31.1988 2.863 30.96 2.20547L30.8407 2.09589C30.7214 1.9863 30.602 1.87672 30.3632 1.87672C30.1245 1.76713 29.7664 1.76713 29.4083 1.87672H24.8726C24.7532 1.87672 24.7532 1.87672 24.5145 1.87672C24.3951 1.87672 24.2758 1.87672 24.2758 1.87672H24.1564H24.037L23.9177 1.9863C23.7983 2.09588 23.7983 2.09588 23.7983 2.20547C23.3208 3.41095 22.724 4.39725 22.1272 5.49314C21.7691 6.04109 21.411 6.58904 21.053 7.0274C20.6949 7.46576 20.4561 7.79452 20.2174 8.0137C19.9787 8.23287 19.7399 8.34246 19.6206 8.56164C19.5012 8.67123 19.2625 8.78083 19.2625 8.67124C19.1431 8.67124 19.0238 8.67123 19.0238 8.56164C18.9044 8.45205 18.7851 8.34246 18.6657 8.23287C18.5463 8.12328 18.5463 7.9041 18.427 7.68493C18.427 7.46575 18.427 7.24657 18.427 7.13698C18.427 7.02739 18.427 6.69863 18.427 6.47946C18.427 6.15069 18.427 5.9315 18.427 5.82191C18.427 5.49315 18.427 5.0548 18.427 4.61644C18.427 4.17809 18.427 3.84931 18.427 3.63013C18.427 3.41095 18.427 3.08219 18.427 2.86301C18.427 2.53424 18.427 2.31506 18.427 2.20547C18.427 2.09588 18.3076 1.87671 18.3076 1.76712C18.1883 1.65753 18.0689 1.54794 17.9495 1.43835C17.8301 1.32876 17.5914 1.32876 17.4721 1.21917C16.8753 1.10959 16.1591 1 15.3236 1C13.4137 1 12.1007 1.10959 11.6233 1.32877C11.3846 1.43836 11.1458 1.54794 11.0265 1.76712C10.7878 1.9863 10.7878 2.09589 10.9071 2.09589C11.5039 2.20548 11.9814 2.42465 12.2201 2.75342L12.3395 2.97261C12.4588 3.0822 12.4588 3.30136 12.5782 3.63013C12.6975 3.9589 12.6976 4.28767 12.6976 4.72602C12.6976 5.38356 12.6976 6.0411 12.6976 6.47946C12.6976 7.0274 12.5782 7.35616 12.5782 7.68493C12.5782 8.01369 12.4588 8.23288 12.3395 8.34247C12.2201 8.56165 12.2201 8.67124 12.1007 8.67124C12.1007 8.67124 12.1007 8.78082 11.9814 8.78082C11.862 8.78082 11.7427 8.89041 11.5039 8.89041C11.3846 8.89041 11.1458 8.78083 11.0265 8.67124C10.7878 8.56165 10.549 8.34247 10.4297 8.12329C10.1909 7.90411 9.95221 7.57534 9.71349 7.13698C9.47476 6.69862 9.11666 6.26027 8.87793 5.60274L8.63923 5.16439C8.51987 4.94521 8.28114 4.50685 8.04242 3.9589C7.80369 3.41096 7.56496 2.97261 7.32623 2.42466C7.20687 2.20548 7.08752 2.09588 6.96816 1.9863H6.84879C6.84879 1.9863 6.72941 1.87672 6.61005 1.87672C6.49068 1.87672 6.37134 1.76712 6.25197 1.76712H1.95491C1.47745 1.76712 1.23873 1.87671 1.11937 1.9863L1 2.09589C1 2.09589 1 2.20548 1 2.31507C1 2.42466 1.00001 2.53424 1.11937 2.75342C1.71618 4.06849 2.43236 5.38356 3.14853 6.69863C3.86471 7.90411 4.58089 9.00001 5.05835 9.76713C5.65516 10.5343 6.1326 11.3014 6.72942 11.9589C7.32623 12.6164 7.68431 13.0548 7.80368 13.274C8.0424 13.4932 8.16176 13.6027 8.28112 13.7123L8.63923 14.0411C8.87795 14.2603 9.23604 14.589 9.71349 14.9178C10.1909 15.2466 10.7877 15.5753 11.3846 15.9041C11.9814 16.2329 12.6976 16.4521 13.4137 16.6712C14.2493 16.8904 14.9654 17 15.6816 16.8904H17.4721C17.8302 16.8904 18.0689 16.7808 18.3076 16.5617L18.427 16.4521C18.427 16.3425 18.5463 16.3425 18.5463 16.2329C18.5463 16.1233 18.5463 16.0137 18.5463 15.7945C18.5463 15.3562 18.5463 15.0274 18.6657 14.6986C18.7851 14.3699 18.7851 14.1507 18.9044 13.9315C19.0238 13.7123 19.1431 13.6027 19.2625 13.4932C19.3819 13.3836 19.5012 13.274 19.5012 13.274H19.6206C19.8593 13.1644 20.2174 13.274 20.4561 13.4932C20.8142 13.7123 21.1723 14.0411 21.411 14.3699C21.6498 14.6986 22.0079 15.0274 22.4853 15.4658C22.9628 15.9041 23.3209 16.2329 23.5596 16.3425L23.9177 16.5617C24.1564 16.6712 24.3951 16.7808 24.7532 16.8904C25.1113 17 25.35 17 25.5887 17L29.6471 16.8904C30.0052 16.8904 30.3632 16.7808 30.602 16.6712C30.8407 16.5617 30.96 16.4521 30.96 16.2329C30.96 16.1233 30.96 15.9041 30.96 15.7945C30.7213 15.5754 30.7213 15.4658 30.7213 15.3562Z" stroke="#2E2F20"/>
</svg>
